<svg width="19" height="18" viewBox="0 0 19 18" fill="none" xmlns="http://www.w3.org/2000/svg">
  <mask id="mask0_1027_7280" style="mask-type:alpha" maskUnits="userSpaceOnUse" x="0" y="0" width="19" height="18">
    <path d="M11.7477 9.40171C11.7075 9.38958 11.6714 9.36704 11.6428 9.33637C11.6142 9.30571 11.5943 9.26801 11.5851 9.22714C11.5758 9.18626 11.5776 9.14367 11.5902 9.10369C11.6027 9.06372 11.6257 9.02779 11.6567 8.99958C12.1975 8.48755 12.6254 7.86812 12.9128 7.18102C13.2002 6.49392 13.3408 5.75433 13.3256 5.00971C13.3256 2.2476 11.4312 0 9.10329 0C6.77542 0 4.8833 2.2476 4.8833 5.00971C4.86808 5.75433 5.00868 6.49392 5.29607 7.18102C5.58347 7.86812 6.01133 8.48755 6.55219 8.99958C6.58325 9.02762 6.60628 9.06342 6.61891 9.10331C6.63154 9.14319 6.63331 9.18573 6.62404 9.22653C6.61478 9.26733 6.59481 9.30492 6.56619 9.33544C6.53757 9.36596 6.50133 9.38831 6.46121 9.40018C4.83639 9.89269 3.3773 10.8204 2.24198 12.0828C1.10666 13.3452 0.338386 14.8941 0.0203792 16.5619C-0.0123085 16.7376 -0.0056066 16.9184 0.0400022 17.0911C0.0856111 17.2639 0.168991 17.4244 0.284129 17.5611C0.401793 17.7003 0.548723 17.8118 0.714436 17.8876C0.880149 17.9635 1.06056 18.0018 1.2428 17.9999H3.85353V13.9305C3.85353 13.8678 3.87846 13.8076 3.92284 13.7632C3.96721 13.7189 4.02739 13.6939 4.09015 13.6939C4.1529 13.6939 4.21308 13.7189 4.25745 13.7632C4.30183 13.8076 4.32675 13.8678 4.32675 13.9305V17.9999H13.7889V13.9305C13.7889 13.8678 13.8138 13.8076 13.8582 13.7632C13.9025 13.7189 13.9627 13.6939 14.0255 13.6939C14.0882 13.6939 14.1484 13.7189 14.1928 13.7632C14.2371 13.8076 14.2621 13.8678 14.2621 13.9305V17.9999H16.9676C17.1495 18.0019 17.3296 17.9635 17.495 17.8877C17.6603 17.8118 17.8068 17.7003 17.924 17.5611C18.0391 17.4244 18.1224 17.2639 18.168 17.0911C18.2136 16.9184 18.2204 16.7376 18.1877 16.5619C17.8694 14.8945 17.101 13.346 15.9657 12.084C14.8304 10.822 13.3715 9.89472 11.7469 9.40247L11.7477 9.40171Z" fill="#FAF8F6"/>
  </mask>
  <g mask="url(#mask0_1027_7280)">
    <path d="M0.90286 15.3832C-0.95815 13.539 -2 11.0632 -2 8.48517C-2 5.90711 -0.95815 3.43134 0.90286 1.58712C3.15623 -0.0904499 5.91926 -1 8.76198 -1C11.6047 -1 14.3677 -0.0904499 16.621 1.58712C17.5878 2.47737 18.3469 3.55736 18.8474 4.75473C19.3479 5.9521 19.5782 7.23918 19.523 8.52974C19.5862 9.81688 19.3594 11.1019 18.8583 12.2957C18.3572 13.4896 17.5938 14.5636 16.621 15.4433C14.3607 17.1119 11.5941 18.0108 8.75142 17.9999C5.90878 17.989 3.14951 17.0691 0.90286 15.3832Z" fill="#000"/>
  </g>
</svg>
