<svg width="97" height="76" viewBox="0 0 97 76" fill="none" xmlns="http://www.w3.org/2000/svg">
<path d="M89.3799 54.7703C89.4927 42.834 71.3138 42.0748 48.8848 41.859C26.4579 41.6442 8.26639 42.0514 8.15679 53.992C8.04192 65.9272 26.1333 75.7806 48.5634 75.9964C70.9924 76.2122 89.2682 66.7098 89.3799 54.7703Z" fill="#EE8E26"/>
<path d="M48.0396 71.1181C36.5684 71.1181 24.4324 68.4876 14.2733 61.554C12.2931 60.2036 9.02829 57.1977 8.68579 52.8075C12.2077 61.8889 28.7774 68.763 48.6877 68.763C68.754 68.763 85.43 61.7804 88.7728 52.5938C88.7033 55.1892 87.6579 58.1993 84.2908 60.9511C77.6505 66.378 63.4436 71.1192 48.0396 71.1181Z" fill="#F3A130"/>
<path d="M89.383 49.1998C89.383 60.0048 71.161 68.7629 48.6877 68.7629C26.2145 68.7629 7.99561 60.0048 7.99561 49.1998C7.99561 38.3927 26.2145 29.6334 48.6877 29.6334C71.161 29.6334 89.383 38.3927 89.383 49.1998Z" fill="#601F07"/>
<path d="M48.6878 64.2568C31.5881 64.2568 17.3032 58.8213 13.8698 51.573C20.6281 56.5502 31.9337 59.8176 44.8212 59.9239C48.3231 61.8314 51.1053 63.3679 52.5406 64.1632C51.275 64.2249 49.9903 64.2568 48.6878 64.2568ZM54.4671 64.0462C55.7401 62.9925 58.3568 60.85 61.7776 58.1557C67.4136 56.8681 72.3519 54.9351 76.2132 52.5523C76.9952 53.0456 77.8329 53.4039 78.8046 53.4039C78.9152 53.4039 79.028 53.3997 79.1439 53.3901C80.5993 53.2668 81.1673 52.7415 81.4297 51.9993C81.4782 52.0004 81.5277 52.0004 81.5762 52.0004C82.1695 52.0004 82.7713 51.9441 83.3878 51.8122C80.1788 58.1121 68.752 62.9957 54.4671 64.0462Z" fill="#6A260B"/>
<path d="M85.0803 39.9621C85.2025 50.7383 67.8784 59.6762 46.3884 59.9218C24.8963 60.1695 7.3803 51.6293 7.2591 40.851C7.13897 30.0726 24.4631 21.1336 45.9521 20.8912C67.441 20.6456 84.9612 29.1826 85.0803 39.9621Z" fill="#DB2C1A"/>
<path d="M84.9728 38.8712C85.0908 49.0392 67.7888 57.4848 46.324 57.7326C24.8625 57.9739 7.37073 49.926 7.25692 39.7569C7.14205 29.5888 24.4525 21.1421 45.9131 20.9008C67.3757 20.653 84.8632 28.7009 84.9728 38.8712Z" fill="#FA5E43"/>
<path d="M13.4335 43.8313C25.6729 49.1753 53.6103 64.7576 53.6103 64.7576C53.6103 64.7576 74.4459 47.2561 90.3126 38.1056C106.877 28.5542 -4.14041 36.1566 13.4335 43.8313Z" fill="#FFD177"/>
<path d="M53.6104 62.6757C53.6104 62.6757 43.445 57.0063 32.6915 51.3348C32.9582 51.3061 33.21 51.2891 33.4556 51.2891C34.4715 51.2891 35.3662 51.574 36.6603 52.4544C38.5467 53.7399 39.4467 55.0339 41.9801 55.102C42.0423 55.1041 42.1024 55.1041 42.1624 55.1041C44.8835 55.1041 45.8246 53.4061 48.0008 52.0249C48.5403 51.6825 49.1663 51.3327 49.8365 51.019C50.824 52.0334 51.8589 52.7522 52.8695 52.7522C53.7411 52.7522 54.5947 52.2173 55.3829 50.8723C55.5189 50.6405 55.6464 50.4257 55.7665 50.2269C57.2946 50.8893 57.7162 52.3906 59.632 53.035C60.1685 53.2157 60.6985 53.2934 61.2234 53.2934C62.9359 53.2934 64.5957 52.4608 66.2871 51.6272C67.2408 51.1572 68.204 50.6873 69.1915 50.3672C60.4066 56.968 53.6104 62.6757 53.6104 62.6757Z" fill="#FEC750"/>
<path d="M5.4548 45.5836C6.86379 47.0658 8.82816 46.3534 10.7314 45.641C13.1226 44.7457 15.4158 43.8504 16.3843 47.3103C16.869 49.036 15.9121 51.2402 18.7196 51.6676C19.8019 51.8314 20.6692 51.4528 21.5502 51.0743C22.5556 50.6437 23.5788 50.212 24.9573 50.5852C27.5961 51.3008 27.9028 52.1131 30.6185 51.6591C33.3216 51.2072 34.3597 50.8893 36.6602 52.4544C38.5466 53.7399 39.4466 55.0339 41.9801 55.102C44.8423 55.1796 45.776 53.4358 48.0007 52.0249C49.8049 50.8808 52.567 49.657 54.7453 49.9515C57.1881 50.2811 57.3493 52.2673 59.632 53.035C61.9209 53.8048 64.0781 52.716 66.287 51.6272C68.0532 50.7564 69.8532 49.8856 71.7818 49.9653C75.7822 50.1301 79.5296 52.9499 83.9663 51.6676C88.9236 50.2333 86.8718 45.5113 90.6972 42.1492C93.1169 40.0248 93.844 40.634 94.4605 37.356C94.9305 34.8658 96.0792 32.7945 94.7619 30.55C90.9976 24.132 78.2924 23.274 71.767 21.9715C62.3973 20.1033 51.8156 20.6828 42.547 22.8295C39.1326 23.6227 -2.6967 37.0136 5.4548 45.5836Z" fill="#769927"/>
<path d="M2.24793 42.2375C3.4335 42.7468 4.87621 42.4086 6.32314 42.0695C7.79642 41.7239 9.27391 41.3794 10.489 41.9312C12.9993 43.0689 11.3911 45.7409 13.2638 47.7388C15.8425 50.4927 16.4643 48.4821 18.9366 47.5815C22.1129 46.4278 21.6672 48.2535 23.0424 50.8245C23.9688 52.5502 26.675 55.522 28.944 54.3216C30.6628 53.4114 31.293 48.9829 32.6261 47.3678C36.029 43.2401 42.2741 40.9456 45.7391 45.5931C47.9943 48.6192 52.215 56.2759 55.3828 50.8723C57.0458 48.0366 57.3799 47.7112 60.0735 50.2375C62.5448 52.5576 62.3087 53.0222 65.2363 51.388C67.4768 50.1376 69.6899 48.9371 72.3192 49.943C74.6229 50.8255 76.3196 53.6294 79.1439 53.3901C82.4804 53.1084 81.1494 50.7107 82.1853 48.4555C83.4225 45.7622 86.3396 45.0785 89.009 45.07C89.4895 45.0679 90.1008 45.1476 90.7615 45.2263C92.7849 45.4698 95.2762 45.7122 95.9001 43.6527C96.8865 40.4033 91.7511 40.7946 91.9092 37.6441C92.0124 35.5962 93.1264 35.6239 94.275 35.6505C95.0728 35.6696 95.8885 35.6877 96.3901 35.0083C97.7749 33.138 93.9431 30.1544 92.7586 29.341C89.1249 26.8498 83.8472 26.9912 78.8668 27.1326C76.5346 27.1985 74.2667 27.2655 72.2644 27.0614C63.5502 26.1725 55.0751 25.2198 46.2829 25.9066C40.7966 26.3373 34.0151 26.2618 28.9461 28.5393C25.8193 29.9439 22.9465 32.4022 19.5057 32.9689C17.9755 33.2209 16.4949 32.9636 15.0174 32.7052C13.8097 32.4947 12.603 32.2841 11.3732 32.3522C8.75227 32.4989 -3.61673 39.7122 2.24793 42.2375Z" fill="#A4C256"/>
<path d="M92.1948 29.996C92.1948 46.5607 72.7597 47.3699 48.7879 47.3699C24.8171 47.3699 5.38312 46.5607 5.38312 29.996C5.38312 13.4291 24.8171 -1.52588e-05 48.7879 -1.52588e-05C72.7597 -1.52588e-05 92.1948 13.4291 92.1948 29.996Z" fill="#EE8E26"/>
<path d="M61.1831 15.8406C65.0644 16.0033 70.8321 17.0836 74.0484 14.67C78.4335 11.376 73.8313 6.39879 70.0312 4.34029C68.3809 3.44714 66.6294 2.72198 64.8178 2.12229C60.1219 0.831478 55.0265 0.0925236 49.6919 0.0170326C44.9349 0.0829544 40.1979 0.711338 35.856 1.70656C32.587 2.45298 28.8774 3.45035 25.3565 4.75286C20.2865 7.00381 15.9383 9.96182 12.6061 13.4281C8.95026 19.9321 15.11 26.5872 25.4472 24.7998C32.2371 23.627 37.0237 19.3771 43.5101 17.5876C49.1577 16.031 55.1698 15.5918 61.1831 15.8406Z" fill="#F69F37"/>
<path d="M48.7879 47.3699C48.6973 47.3699 48.6056 47.3699 48.515 47.3699C48.6056 47.3699 48.6973 47.3699 48.7879 47.3699C72.7597 47.3699 92.1947 46.5607 92.1947 29.996C92.1947 46.5607 72.7597 47.3699 48.7879 47.3699Z" fill="#ADA748"/>
<path d="M48.7879 47.3699C48.6973 47.3699 48.6056 47.3699 48.515 47.3699C25.9922 47.3635 7.54672 46.5841 5.5697 32.5914C8.18746 34.601 10.5997 37.7781 12.6568 38.987C15.7994 40.835 20.1623 42.0556 23.817 42.8627C29.1379 44.0386 34.8982 44.3778 40.6543 44.3778C43.8032 44.3778 46.95 44.2757 50.022 44.1545C58.4253 43.8185 67.1807 42.9913 74.6145 39.7175C78.6623 37.9333 82.0399 36.2916 85.2415 33.6037C86.1626 32.8307 89.4864 29.3389 92.0061 27.2687C92.1242 28.1672 92.1948 29.0752 92.1948 29.996C92.1948 46.5607 72.7598 47.3699 48.7879 47.3699Z" fill="#E18226"/>
<path d="M32.6999 11.326C32.3142 11.8172 31.7377 12.0054 31.411 11.7449C31.0843 11.4833 31.1318 10.8741 31.5185 10.3818C31.9032 9.89056 32.8063 9.9618 32.8063 9.9618C32.8063 9.9618 33.0856 10.8337 32.6999 11.326Z" fill="#FEE9C6"/>
<path d="M51.2328 11.3313C50.6648 11.5822 50.0662 11.4695 49.9008 11.0846C49.7353 10.6986 50.0641 10.1851 50.6353 9.93627C51.2065 9.68853 51.9674 10.1829 51.9674 10.1829C51.9674 10.1829 51.8051 11.0835 51.2328 11.3313Z" fill="#FEE9C6"/>
<path d="M57.6117 2.36474C57.1491 2.78261 56.5473 2.86661 56.2701 2.55295C55.9919 2.24034 56.1437 1.64704 56.6095 1.23024C57.0721 0.813435 57.951 1.04204 57.951 1.04204C57.951 1.04204 58.0765 1.94794 57.6117 2.36474Z" fill="#FEE9C6"/>
<path d="M64.4732 10.788C64.1655 11.3313 63.6239 11.6068 63.2603 11.3984C62.8988 11.19 62.8577 10.5796 63.1633 10.0342C63.4721 9.48976 64.3763 9.42384 64.3763 9.42384C64.3763 9.42384 64.782 10.2425 64.4732 10.788Z" fill="#FEE9C6"/>
<path d="M50.4899 15.8098C50.8082 16.3489 50.7755 16.9602 50.4162 17.1761C50.06 17.3909 49.512 17.1261 49.1937 16.5871C48.8765 16.0469 49.2664 15.2218 49.2664 15.2218C49.2664 15.2218 50.1738 15.2697 50.4899 15.8098Z" fill="#FEE9C6"/>
<path d="M67.558 13.4865C67.852 14.0383 67.7909 14.6476 67.4242 14.8464C67.0564 15.0442 66.521 14.7561 66.2291 14.2031C65.9351 13.6502 66.3619 12.8432 66.3619 12.8432C66.3619 12.8432 67.2661 12.9325 67.558 13.4865Z" fill="#FEE9C6"/>
<path d="M73.7913 14.4531C73.276 14.804 72.669 14.8061 72.4361 14.4563C72.2032 14.1086 72.4329 13.5419 72.9472 13.1921C73.4636 12.8412 74.3024 13.1878 74.3024 13.1878C74.3024 13.1878 74.3077 14.1033 73.7913 14.4531Z" fill="#FEE9C6"/>
<path d="M44.0719 21.2324C44.4418 21.7364 44.4681 22.3478 44.1351 22.5977C43.7989 22.8465 43.2278 22.6413 42.8589 22.1362C42.4901 21.6312 42.7978 20.771 42.7978 20.771C42.7978 20.771 43.703 20.7274 44.0719 21.2324Z" fill="#FEE9C6"/>
<path d="M40.4793 5.23875C40.0082 5.64811 39.4065 5.72148 39.1346 5.40356C38.8627 5.08564 39.025 4.49554 39.4961 4.08511C39.9671 3.67682 40.8408 3.9203 40.8408 3.9203C40.8408 3.9203 40.9514 4.82939 40.4793 5.23875Z" fill="#FEE9C6"/>
<path d="M24.6169 17.6546C24.1005 18.0034 23.4946 18.0034 23.2627 17.6546C23.0298 17.3048 23.2627 16.7392 23.778 16.3893C24.2944 16.0427 25.1322 16.3893 25.1322 16.3893C25.1322 16.3893 25.1322 17.3059 24.6169 17.6546Z" fill="#FEE9C6"/>
<path d="M41.2278 14.0735C41.7431 14.4222 41.9728 14.9879 41.742 15.3377C41.5091 15.6875 40.9032 15.6864 40.3879 15.3366C39.8715 14.9879 39.8715 14.0735 39.8715 14.0735C39.8715 14.0735 40.7114 13.7247 41.2278 14.0735Z" fill="#FEE9C6"/>
<path d="M29.9819 21.0433C30.5057 21.3793 30.7502 21.9407 30.5278 22.2948C30.3044 22.6499 29.6995 22.6648 29.1736 22.3288C28.6478 21.9928 28.6267 21.0773 28.6267 21.0773C28.6267 21.0773 29.455 20.7073 29.9819 21.0433Z" fill="#FEE9C6"/>
<path d="M17.983 13.2463C18.4456 13.6663 18.5963 14.2596 18.3181 14.5712C18.0409 14.8838 17.4402 14.7976 16.9776 14.3787C16.515 13.9598 16.6425 13.056 16.6425 13.056C16.6425 13.056 17.5214 12.8274 17.983 13.2463Z" fill="#FEE9C6"/>
<path d="M26.2828 7.30471C26.7297 7.73959 26.8593 8.33607 26.5726 8.64017C26.2839 8.94321 25.6864 8.83795 25.2375 8.40306C24.7896 7.96818 24.9466 7.06864 24.9466 7.06864C24.9466 7.06864 25.8329 6.87089 26.2828 7.30471Z" fill="#FEE9C6"/>
<path d="M32.7463 5.14954C32.9381 5.74922 32.7706 6.33612 32.3743 6.46371C31.977 6.59236 31.5017 6.21172 31.311 5.61523C31.1234 5.01768 31.6851 4.30106 31.6851 4.30106C31.6851 4.30106 32.5577 4.55305 32.7463 5.14954Z" fill="#FEE9C6"/>
<path d="M36.5801 24.3351C37.1998 24.4011 37.6645 24.7934 37.6213 25.2102C37.5792 25.6281 37.0417 25.9141 36.4231 25.8492C35.8066 25.7822 35.3819 24.9742 35.3819 24.9742C35.3819 24.9742 35.9615 24.2713 36.5801 24.3351Z" fill="#FEE9C6"/>
<path d="M58.0081 22.1958C57.3874 22.2309 56.8657 21.9172 56.8425 21.4972C56.8204 21.0794 57.3041 20.7115 57.9269 20.6764C58.5455 20.6424 59.0914 21.3728 59.0914 21.3728C59.0914 21.3728 58.6277 22.1607 58.0081 22.1958Z" fill="#FEE9C6"/>
<path d="M55.3164 24.7839C55.5546 25.3623 55.4366 25.9631 55.0509 26.1236C54.6673 26.2852 54.1625 25.9439 53.9233 25.3655C53.6872 24.7871 54.1899 24.0258 54.1899 24.0258C54.1899 24.0258 55.0793 24.2044 55.3164 24.7839Z" fill="#FEE9C6"/>
<path d="M19.5341 21.7875C19.4909 22.4138 19.121 22.8975 18.7058 22.8699C18.2895 22.8412 17.987 22.3106 18.0292 21.6854C18.0703 21.0592 18.8565 20.603 18.8565 20.603C18.8565 20.603 19.5762 21.1612 19.5341 21.7875Z" fill="#FEE9C6"/>
<path d="M50.4772 2.45186C50.0588 2.91439 49.4697 3.06006 49.1609 2.77723C48.8553 2.4944 48.9449 1.88833 49.3653 1.42687C49.7848 0.962211 50.6806 1.09937 50.6806 1.09937C50.6806 1.09937 50.8956 1.98933 50.4772 2.45186Z" fill="#FEE9C6"/>
<path d="M73.0558 16.8582C73.2233 17.4632 73.0357 18.0448 72.6342 18.1596C72.2349 18.2734 71.7743 17.8758 71.6036 17.2739C71.435 16.6689 72.022 15.9736 72.022 15.9736C72.022 15.9736 72.8861 16.2553 73.0558 16.8582Z" fill="#FEE9C6"/>
<path d="M59.0829 14.5966C58.4833 14.7561 57.91 14.5573 57.8025 14.15C57.6971 13.7438 58.0986 13.2856 58.7014 13.1261C59.3031 12.9666 59.9807 13.5716 59.9807 13.5716C59.9807 13.5716 59.6846 14.4382 59.0829 14.5966Z" fill="#FEE9C6"/>
<path d="M66.8297 21.1029C66.5304 21.6526 65.9929 21.9343 65.6262 21.7334C65.2626 21.5314 65.2099 20.9221 65.506 20.3724C65.8053 19.8227 66.7106 19.7419 66.7106 19.7419C66.7106 19.7419 67.129 20.5521 66.8297 21.1029Z" fill="#FEE9C6"/>
<path d="M68.4969 6.47756C68.4368 7.1017 68.0522 7.57591 67.637 7.53657C67.2238 7.4951 66.9372 6.95602 66.9952 6.33294C67.0552 5.70774 67.8541 5.27393 67.8541 5.27393C67.8541 5.27393 68.5559 5.85448 68.4969 6.47756Z" fill="#FEE9C6"/>
<path d="M53.8568 6.91668C53.235 6.91349 52.7313 6.56899 52.7334 6.149C52.7355 5.72902 53.2424 5.39302 53.8621 5.39408C54.4839 5.39939 54.9844 6.16178 54.9844 6.16178C54.9844 6.16178 54.4775 6.91987 53.8568 6.91668Z" fill="#FEE9C6"/>
<path d="M62.3973 5.77896C61.9346 6.19576 61.3318 6.28082 61.0547 5.96503C60.7796 5.65243 60.9303 5.0602 61.395 4.64234C61.8598 4.2266 62.7376 4.45627 62.7376 4.45627C62.7376 4.45627 62.8599 5.3611 62.3973 5.77896Z" fill="#FEE9C6"/>
</svg>
