<svg width="7" height="10" viewBox="0 0 7 10" fill="none" xmlns="http://www.w3.org/2000/svg">
<path d="M3.14014 10H3.87451L3.87842 9.12109C5.53076 9 6.47607 8.05469 6.47607 6.78906C6.47607 5.34766 5.19092 4.78906 4.17529 4.53906L3.89014 4.46484L3.89795 1.95703C4.62842 2.05469 5.12842 2.46094 5.20264 3.10156H6.3667C6.33545 1.91016 5.35107 1.01953 3.90186 0.902344L3.90576 -5.96046e-07H3.17139L3.16748 0.910156C1.76514 1.05078 0.737793 1.92578 0.737793 3.1875C0.737793 4.30078 1.53467 4.95312 2.81982 5.30078L3.15576 5.39062L3.14795 8.05078C2.38623 7.95703 1.79639 7.54297 1.73389 6.78906H0.522949C0.597168 8.13672 1.56982 9.00391 3.14404 9.12109L3.14014 10ZM3.88232 8.05078L3.89014 5.59375C4.68311 5.8125 5.28076 6.10156 5.28076 6.77734C5.28076 7.46094 4.71045 7.94141 3.88232 8.05078ZM3.15967 4.26953C2.57764 4.09766 1.93701 3.78906 1.94092 3.11719C1.94092 2.53125 2.40576 2.07422 3.16357 1.96094L3.15967 4.26953Z" fill="#EB5757"/>
</svg>
