<svg width="35" height="38" viewBox="0 0 35 38" fill="none" xmlns="http://www.w3.org/2000/svg">
<path d="M0.687683 12.327V31.6663L0.840905 31.6374C0.748972 32.1487 0.687683 32.6504 0.687683 33.1232C0.687683 37.2681 10.7426 37.1893 19.3869 37.1114C20.8412 37.0982 22.2552 37.0851 23.5747 37.0921C29.7605 37.1236 34.6006 30.2374 34.5007 25.2887V4.4908L0.687683 12.327Z" fill="#2F2C26"/>
<path d="M15.8235 37.1315C12.6224 37.1315 9.44504 37.0544 6.83063 36.7025V15.908C9.43541 16.2591 12.604 16.3344 15.7937 16.3344C16.0984 16.3344 16.404 16.3335 16.7086 16.3327V37.1297C16.4136 37.1306 16.1185 37.1315 15.8235 37.1315Z" fill="#585349"/>
<path d="M17.8459 37.1236V16.3256C18.1663 16.323 18.4859 16.3204 18.8029 16.3177V37.1157C18.4859 37.1192 18.1655 37.1201 17.8459 37.1236Z" fill="#3E3A33"/>
<path d="M34.5007 4.4907C34.6006 9.43934 29.7605 16.3264 23.5747 16.2932C22.2552 16.2862 20.8403 16.2993 19.3869 16.3125C10.7417 16.3913 0.687683 16.4701 0.687683 12.3269C0.687683 7.48685 5.54175 0.16106 14.7088 0.16106C23.8759 0.16106 34.4018 -0.34762 34.5007 4.4907Z" fill="#F3E3CD"/>
<path d="M12.9447 3.97326C10.1289 4.77001 8.55112 6.28561 9.28658 9.01997C10.3793 13.0869 19.711 12.3287 22.9567 11.6992C25.0238 11.2982 27.4719 10.2703 27.4982 7.28724C27.5341 3.0338 16.8339 2.87269 12.9447 3.97326Z" fill="white"/>
<path d="M12.9447 3.97326C10.1289 4.77001 8.55112 6.28561 9.28658 9.01997C10.3793 13.0869 19.711 12.3287 22.9567 11.6992C25.0238 11.2982 27.4719 10.2703 27.4982 7.28724C27.5341 3.0338 16.8339 2.87269 12.9447 3.97326Z" fill="white"/>
<path d="M10.0263 10.2931C12.125 12.4566 17.6585 12.3778 21.1187 11.9733C21.1529 11.4479 21.0732 10.8359 20.8517 10.118C20.5811 9.23278 20.1504 8.6085 19.6837 8.11732C18.6374 7.01587 13.0732 7.97636 10.0263 10.2931Z" fill="#64AB4E"/>
<path d="M10.4274 10.631C12.6076 12.3208 17.2103 12.3602 20.4709 12.0432C20.5436 11.5564 20.4911 10.9733 20.2652 10.2685C20.0156 9.49362 19.6978 8.99716 19.3879 8.48146C18.6936 7.31785 13.1049 8.59179 10.4274 10.631Z" fill="#B9D053"/>
<path d="M18.6917 3.40154C16.445 3.36389 14.2885 3.59242 12.9445 3.97328C12.0865 4.21669 11.3606 4.53715 10.7626 4.92765C12.0261 5.12465 13.3114 5.44947 14.5188 5.70075C15.2551 5.85485 16.5115 6.29352 17.1735 5.84523C17.9562 5.31465 18.3703 4.26046 18.6917 3.40154Z" fill="#EE8947"/>
<path d="M12.9447 3.97327C12.317 4.15101 11.7601 4.37077 11.2663 4.62644C12.3038 4.80943 13.3466 5.05197 14.3334 5.25072C15.0382 5.39431 16.2377 5.79707 16.8716 5.38293C17.537 4.94953 17.9214 4.13176 18.2164 3.39717C16.1457 3.39717 14.1941 3.61955 12.9447 3.97327Z" fill="#FFBB98"/>
<path d="M21.7457 3.63095C20.9682 4.66586 19.9849 5.93103 20.7081 6.40646C22.0005 7.25837 23.5949 7.465 25.0763 7.39496C25.8888 7.35819 26.6908 7.261 27.4858 7.13229C27.3764 5.12027 24.8005 4.05822 21.7457 3.63095Z" fill="#EE8947"/>
<path d="M27.4587 6.85739C27.1461 5.06687 24.7786 4.08885 21.9593 3.66333C21.2388 4.61681 20.4166 5.7279 21.0733 6.15779C22.3069 6.96593 23.8269 7.16208 25.24 7.09553C25.9869 7.06051 26.7267 6.97208 27.4587 6.85739Z" fill="#FFBB98"/>
<path d="M6.80256 12.6956C6.5539 12.6089 6.35165 12.4758 6.22382 12.3147C6.34114 12.2525 6.45759 12.1798 6.57053 12.0958C6.93564 11.8244 7.20182 11.489 7.34191 11.1598C7.45048 11.1554 7.55291 11.1388 7.64572 11.1108C7.86724 11.3734 8.29101 11.5582 8.78483 11.581C8.85137 11.6843 8.88814 11.7972 8.88814 11.9154C8.88814 12.0783 8.81898 12.2306 8.69902 12.362C8.5423 12.2543 8.34005 12.2009 8.11416 12.2009C7.72016 12.2009 7.25348 12.362 6.83058 12.6745C6.82095 12.6815 6.81219 12.6886 6.80256 12.6956Z" fill="#F6EBD9"/>
<path d="M8.88815 11.5828C8.85313 11.5828 8.81899 11.5819 8.78484 11.581C8.61498 11.3157 8.249 11.1143 7.80072 11.0478C7.92943 10.9813 8.031 10.8858 8.09229 10.7624C8.20348 10.5382 8.16145 10.2633 8.00385 10.0006C8.24551 9.87631 8.55281 9.80276 8.88815 9.80276C9.21998 9.80276 9.52555 9.87543 9.76633 9.99801C9.91079 10.1889 10.0798 10.3649 10.2689 10.5268C10.2855 10.5811 10.2934 10.6363 10.2934 10.6932C10.2934 10.8709 10.2111 11.0364 10.0693 11.1756C9.98171 11.1625 9.89679 11.1555 9.81449 11.1555C9.44063 11.1555 9.13243 11.2921 9.00197 11.553C8.9976 11.5617 8.99323 11.5714 8.98885 11.581C8.95558 11.5819 8.92229 11.5828 8.88815 11.5828Z" fill="#F6EBD9"/>
<path d="M10.2689 10.5269C10.0797 10.3649 9.91076 10.1889 9.7663 9.99802C9.8985 10.0646 10.0106 10.1469 10.0973 10.2397C10.0736 10.2572 10.05 10.2756 10.0263 10.2931C10.1016 10.371 10.1822 10.4463 10.2671 10.519C10.268 10.5216 10.268 10.5242 10.2689 10.5269Z" fill="white"/>
<path d="M10.2677 10.5189C10.1826 10.4461 10.1018 10.3706 10.0263 10.2925C10.05 10.2749 10.0737 10.2565 10.0974 10.2389C10.1773 10.3241 10.2361 10.418 10.2677 10.5189Z" fill="#91C279"/>
<path d="M8.78481 11.5811C8.29099 11.5583 7.86721 11.3735 7.64569 11.1109C7.70085 11.0942 7.75251 11.0732 7.80067 11.0478C8.24896 11.1144 8.61495 11.3158 8.78481 11.5811Z" fill="#F9F0E2"/>
<path d="M9.107 15.1786C8.5265 15.1786 8.02656 14.9563 7.81293 14.6376C7.92062 14.5789 8.02832 14.5106 8.13251 14.4327C8.53177 14.1367 8.81282 13.7629 8.9389 13.4048C8.99406 13.4004 9.05009 13.3987 9.107 13.3987C9.88363 13.3987 10.5123 13.7961 10.5123 14.2882C10.5123 14.2935 10.5123 14.2987 10.5123 14.304C10.3704 14.4817 10.2636 14.6682 10.1971 14.8512C9.93968 15.0508 9.54653 15.1786 9.107 15.1786Z" fill="#F6EBD9"/>
<path d="M16.7183 14.6594C16.4626 14.4344 16.0459 14.2882 15.5766 14.2882C15.531 14.2882 15.4855 14.2899 15.4409 14.2926C15.4435 14.2681 15.4452 14.2435 15.4452 14.219C15.6133 14.2637 15.7981 14.2882 15.9916 14.2882C16.7244 14.2882 17.3286 13.9345 17.3925 13.4783C17.4415 13.6096 17.5203 13.7419 17.6262 13.8671C17.6192 13.9616 17.5895 14.0527 17.5396 14.1376C17.1858 14.1472 16.8969 14.2829 16.7717 14.5325C16.7524 14.5727 16.7375 14.6139 16.727 14.6568C16.7235 14.6577 16.7209 14.6585 16.7183 14.6594Z" fill="#F6EBD9"/>
<path d="M28.0417 6.45374C27.7537 6.4406 27.4893 6.37317 27.2748 6.26723C27.1452 5.99668 26.9631 5.74804 26.7346 5.5204C26.7451 5.38819 26.8011 5.26384 26.8922 5.15352C27.2039 5.12376 27.4534 4.99067 27.5672 4.76215C27.569 4.75865 27.5707 4.75428 27.5725 4.75078C27.7055 4.71401 27.8491 4.68949 27.9997 4.67986C28.0391 4.68511 28.0803 4.6886 28.1206 4.69123C27.7914 4.85408 27.5786 5.108 27.5786 5.3943C27.5786 5.88199 28.2002 6.27863 28.969 6.28388C28.8884 6.32153 28.8017 6.35304 28.7107 6.3793C28.6415 6.37055 28.575 6.36706 28.5093 6.36706C28.3359 6.36706 28.1757 6.39595 28.0417 6.45374Z" fill="#F6EBD9"/>
<path d="M27.2748 6.26721C27.2721 6.26634 27.2704 6.26548 27.2687 6.2646C27.1399 5.99668 26.9596 5.75063 26.7346 5.52473C26.7346 5.52386 26.7346 5.52212 26.7346 5.52037C26.9631 5.74802 27.1452 5.99666 27.2748 6.26721Z" fill="white"/>
<path d="M27.2687 6.26465C26.9421 6.10179 26.7328 5.84876 26.7328 5.56507C26.7328 5.55194 26.7337 5.53879 26.7346 5.52478C26.9596 5.75068 27.14 5.99673 27.2687 6.26465Z" fill="#FFCDB1"/>
<path d="M20.456 1.9989C20.4525 1.9989 20.4481 1.9989 20.4446 1.9989C20.3115 1.88245 20.1557 1.7774 19.9797 1.68897C19.7056 1.55239 19.4237 1.47971 19.1689 1.46746C19.0928 1.35801 19.0507 1.2363 19.0507 1.10935C19.0507 0.616412 19.6802 0.218918 20.456 0.218918C20.9104 0.218918 21.3149 0.355502 21.5723 0.567386C21.5058 0.559506 21.441 0.555993 21.3779 0.555993C21.0032 0.555993 20.695 0.691707 20.5654 0.953497C20.4166 1.25031 20.5365 1.63468 20.8395 1.96564C20.7178 1.98753 20.5891 1.9989 20.456 1.9989Z" fill="#F6EBD9"/>
<path d="M22.5319 3.6546C21.7553 3.6546 21.1266 3.25621 21.1266 2.76502C21.1266 2.60917 21.1897 2.46296 21.3 2.33601C21.3473 2.36403 21.3972 2.39116 21.448 2.41655C21.7492 2.56715 22.0591 2.63982 22.3332 2.63982C22.7079 2.63982 23.017 2.50323 23.1474 2.24144C23.1868 2.16177 23.2079 2.07509 23.2105 1.98491C23.2376 1.99454 23.2639 2.00418 23.2893 2.01469C23.1693 2.3474 23.1825 2.66872 23.3558 2.90337C23.4574 3.03908 23.6019 3.13188 23.7743 3.18266C23.5379 3.46372 23.0704 3.6546 22.5319 3.6546Z" fill="#F6EBD9"/>
<path d="M16.3637 0.156738C16.404 0.144481 16.4451 0.133089 16.4872 0.123458C16.46 0.13484 16.4338 0.146232 16.4066 0.156738C16.3917 0.156738 16.3786 0.156738 16.3637 0.156738ZM16.5055 0.156738C16.5607 0.133975 16.6159 0.11121 16.6719 0.0884464C16.7717 0.0744384 16.8759 0.0665588 16.9827 0.0665588C17.1964 0.0665588 17.4004 0.0971989 17.5825 0.15148C17.2235 0.153231 16.8636 0.154987 16.5055 0.156738Z" fill="white"/>
<path d="M16.4067 0.156738C16.4339 0.146205 16.4602 0.134784 16.4874 0.123373C16.5471 0.109329 16.6094 0.0970495 16.6726 0.0882721C16.6164 0.111093 16.5611 0.133917 16.5058 0.156738C16.4734 0.156738 16.4392 0.156738 16.4067 0.156738Z" fill="#F95A5C"/>
<path d="M18.114 1.48499C17.9047 1.40531 17.6595 1.36066 17.3978 1.36066C17.3356 1.36066 17.2734 1.36328 17.213 1.36765C17.0274 1.2512 16.7901 1.16716 16.5248 1.13038C16.2569 1.01393 15.9864 0.957024 15.7447 0.957024C15.6869 0.957024 15.6309 0.95966 15.5766 0.966665C15.5766 0.963163 15.5766 0.95965 15.5766 0.956148C15.5766 0.605051 15.8971 0.30212 16.3637 0.156778C16.3786 0.156778 16.3917 0.156778 16.4066 0.156778C16.439 0.156778 16.4732 0.156778 16.5056 0.156778C16.8637 0.155027 17.2235 0.153271 17.5825 0.15152C18.0588 0.294235 18.3889 0.600673 18.3889 0.956148C18.3889 1.15402 18.2864 1.33702 18.114 1.48499Z" fill="#F6EBD9"/>
<path d="M15.9268 2.8692C15.6887 2.83768 15.4725 2.76676 15.2956 2.66957C15.3114 2.61616 15.3192 2.56186 15.3192 2.5067C15.3192 2.49707 15.3184 2.48833 15.3184 2.4787C15.4576 2.60653 15.6248 2.7221 15.8139 2.81666C15.8516 2.83592 15.8892 2.85344 15.9268 2.8692Z" fill="#F6EBD9"/>
<path d="M16.9845 1.39917C16.8786 1.31862 16.7595 1.24419 16.6308 1.17939C16.5958 1.16188 16.5599 1.14524 16.5248 1.13036C16.7901 1.16713 17.0274 1.25118 17.213 1.36764C17.1351 1.37464 17.0581 1.38516 16.9845 1.39917Z" fill="#F9F0E2"/>
<path d="M13.9131 3.39722C13.773 3.39722 13.6373 3.38407 13.5095 3.35955C13.9175 2.94104 14.1223 2.44285 14.0523 2.04885C14.1687 2.07162 14.2826 2.08301 14.3911 2.08301C14.5461 2.08301 14.6906 2.06024 14.8158 2.01384C14.8228 2.27563 15.0067 2.5094 15.2956 2.66963C15.1748 3.08376 14.6022 3.39722 13.9131 3.39722Z" fill="#F6EBD9"/>
<path d="M15.2954 2.66956C15.0065 2.50933 14.8226 2.27556 14.8156 2.01377C14.8585 1.99801 14.8997 1.97873 14.9373 1.95772C15.0117 2.13721 15.1422 2.31759 15.3182 2.47869C15.3182 2.48832 15.3191 2.49706 15.3191 2.50669C15.3191 2.56185 15.3112 2.61615 15.2954 2.66956Z" fill="#F9F0E2"/>
<path d="M7.03547 4.19482C6.5723 4.04861 6.2536 3.74655 6.2536 3.39721C6.2536 2.90515 6.884 2.50676 7.65973 2.50676C8.00032 2.50676 8.31376 2.58382 8.55716 2.71165C8.32689 2.79132 8.09226 2.91389 7.86899 3.0785C7.43735 3.39895 7.14404 3.80958 7.03547 4.19482Z" fill="#F6EBD9"/>
<path d="M6.12665 7.8634C5.35091 7.8634 4.72137 7.46501 4.72137 6.97295C4.72137 6.63411 5.0217 6.33905 5.46211 6.18933C5.54178 6.24362 5.62758 6.29352 5.71864 6.33905C6.01896 6.48877 6.32804 6.56144 6.60296 6.56144C6.83849 6.56144 7.04862 6.50715 7.20447 6.40209C7.40935 6.55618 7.53281 6.75581 7.53281 6.97295C7.53281 7.03774 7.52141 7.10079 7.50128 7.16121C7.29027 7.31881 7.11254 7.49742 6.97332 7.68391C6.7378 7.79686 6.44448 7.8634 6.12665 7.8634Z" fill="#F6EBD9"/>
<path d="M4.42723 11.4829C4.36069 11.461 4.29678 11.4356 4.23724 11.4076C4.3747 11.3017 4.4964 11.187 4.60234 11.067C4.52179 11.2062 4.46225 11.3463 4.42723 11.4829ZM4.85888 10.7133C5.04274 10.3972 5.11453 10.0724 5.05062 9.80273C5.0585 9.80273 5.06638 9.80273 5.07426 9.80273C5.20472 9.80273 5.33167 9.81411 5.45162 9.83512C5.46301 9.93931 5.49715 10.0479 5.55144 10.1547C5.456 10.209 5.36144 10.2694 5.2695 10.3377C5.11366 10.4533 4.9762 10.5802 4.85888 10.7133Z" fill="#F6EBD9"/>
<path d="M7.50121 5.24811C7.35061 5.19557 7.22541 5.10802 7.13436 4.98632C6.97676 4.77443 6.95136 4.4925 7.03542 4.19482C7.22366 4.25435 7.43555 4.28763 7.65969 4.28763C7.80853 4.28763 7.953 4.27275 8.08784 4.24473C7.76739 4.55642 7.56162 4.91715 7.50121 5.24811ZM9.00104 3.66247C9.04307 3.57842 9.06495 3.48913 9.06495 3.3972C9.06495 3.1214 8.86707 2.87536 8.55713 2.71163C8.76376 2.64071 8.96689 2.60394 9.15426 2.60394C9.47472 2.60394 9.74615 2.71076 9.90725 2.92789C10.043 3.11088 10.0806 3.3464 10.0342 3.59856C9.91775 3.55828 9.7873 3.53727 9.64721 3.53727C9.44583 3.53727 9.22518 3.57929 9.00104 3.66247Z" fill="#F6EBD9"/>
<path d="M7.65986 4.2876C7.43572 4.2876 7.22383 4.25432 7.03558 4.19478C7.14415 3.80954 7.43747 3.39891 7.86912 3.07846C8.09239 2.91386 8.32703 2.79128 8.55731 2.71161C8.86726 2.87534 9.06514 3.12137 9.06514 3.39717C9.06514 3.4891 9.04325 3.57839 9.00123 3.66244C8.78671 3.74212 8.56957 3.85857 8.36206 4.01266C8.26312 4.08533 8.17207 4.16327 8.08802 4.2447C7.95318 4.27271 7.80871 4.2876 7.65986 4.2876Z" fill="#F9F0E2"/>
<path d="M7.52312 9.39038C7.46533 9.39038 7.40842 9.38687 7.35414 9.37986C7.30686 9.35272 7.2587 9.32559 7.2088 9.30107C7.08972 9.24154 6.9689 9.19424 6.84982 9.15835C6.82093 9.1312 6.79378 9.10058 6.76927 9.06818C6.50923 8.71534 6.60905 8.17337 6.97328 7.68393C7.23769 7.55785 7.42943 7.37399 7.50123 7.16123C7.5021 7.16036 7.50386 7.15948 7.50473 7.1586C7.92763 6.84603 8.3943 6.68579 8.78917 6.68579C8.95903 6.68579 9.11576 6.71556 9.24884 6.77598C9.15603 7.07892 9.10699 7.40462 9.10699 7.75659C9.10611 8.01663 9.13239 8.28981 9.1858 8.57699C9.07548 8.69782 8.9494 8.81163 8.80843 8.91669C8.38467 9.23014 7.91712 9.39038 7.52312 9.39038Z" fill="#F6EBD9"/>
<path d="M9.18595 8.57697C9.13254 8.28978 9.10626 8.01659 9.10714 7.75655C9.10714 7.40458 9.15618 7.07887 9.24899 6.77592C9.36719 6.82933 9.467 6.90727 9.5423 7.00971C9.83649 7.40547 9.6719 8.04637 9.18595 8.57697Z" fill="white"/>
<path d="M6.97333 7.68396C7.11254 7.49747 7.29027 7.31886 7.50128 7.16125C7.42949 7.37402 7.23775 7.55788 6.97333 7.68396Z" fill="#F9F0E2"/>
<path d="M8.38124 6.2428C8.06079 6.2428 7.78936 6.13596 7.62826 5.91883C7.49255 5.73583 7.45402 5.50032 7.5013 5.24816C7.61687 5.28931 7.74821 5.30944 7.8883 5.30944C8.2823 5.30944 8.74983 5.14835 9.17273 4.8349C9.64903 4.48117 9.95723 4.01624 10.0343 3.5986C10.184 3.65201 10.3101 3.73869 10.4011 3.86127C10.7619 4.3472 10.4318 5.2 9.66655 5.76823C9.24278 6.08168 8.77524 6.2428 8.38124 6.2428Z" fill="#F6EBD9"/>
<path d="M7.88828 5.30939C7.74819 5.30939 7.61686 5.28925 7.50128 5.2481C7.5617 4.91714 7.76746 4.55642 8.08791 4.24472C8.52219 4.15716 8.8654 3.93826 9.00111 3.66246C9.22525 3.57928 9.4459 3.53726 9.64728 3.53726C9.78737 3.53726 9.91782 3.55827 10.0343 3.59855C9.95722 4.01619 9.64902 4.48112 9.17272 4.83484C8.74982 5.14829 8.28228 5.30939 7.88828 5.30939Z" fill="#F9F0E2"/>
<path d="M8.08795 4.24475C8.172 4.16332 8.26305 4.08539 8.36199 4.01271C8.56949 3.85862 8.78663 3.74217 9.00114 3.66249C8.86543 3.93829 8.52222 4.15719 8.08795 4.24475Z" fill="#FBF4E9"/>
<path d="M11.9001 4.11694C11.5796 4.11694 11.3073 4.01099 11.1462 3.79385C10.9702 3.55657 10.9588 3.23176 11.0823 2.89555C11.2539 2.93583 11.422 2.95508 11.5814 2.95508C11.9815 2.95508 12.3265 2.83425 12.52 2.62237C12.5918 2.97434 12.9866 3.26064 13.5094 3.35958C13.4122 3.45939 13.3036 3.55482 13.1845 3.64238C12.7616 3.95583 12.2941 4.11694 11.9001 4.11694ZM12.6723 2.08915C12.639 1.91667 12.5366 1.74507 12.3834 1.59272C12.5646 1.51217 12.7459 1.45875 12.9183 1.43161C13.0155 1.53405 13.1302 1.63124 13.2607 1.71792C13.0103 1.8011 12.8045 1.93068 12.6723 2.08915Z" fill="#F6EBD9"/>
<path d="M13.5093 3.3595C12.9866 3.26056 12.5918 2.97426 12.52 2.62229C12.59 2.54611 12.6399 2.45681 12.6653 2.35787C12.6881 2.26944 12.6889 2.17925 12.6723 2.08907C12.8045 1.93059 13.0103 1.80101 13.2607 1.71783C13.3369 1.76949 13.4192 1.81678 13.5058 1.86056C13.688 1.95162 13.8736 2.01377 14.0522 2.0488C14.1222 2.4428 13.9174 2.94098 13.5093 3.3595Z" fill="#F9F0E2"/>
<path d="M24.1114 3.22729C23.9915 3.22729 23.8776 3.21241 23.7743 3.18264C23.8785 3.05744 23.938 2.9156 23.938 2.765C23.938 2.44981 23.6789 2.17315 23.2892 2.01468C23.4171 1.6592 23.6964 1.28971 24.0921 0.995528C24.515 0.682959 24.9817 0.521866 25.3757 0.521866C25.6961 0.521866 25.9685 0.628678 26.1304 0.845814C26.1856 0.919359 26.2241 1.00254 26.2477 1.09097C26.1917 1.12687 26.1366 1.16452 26.0823 1.2048C25.4326 1.68635 25.0955 2.37365 25.2295 2.86746C24.853 3.10561 24.4546 3.22729 24.1114 3.22729Z" fill="#F6EBD9"/>
<path d="M23.7745 3.18262C23.602 3.13183 23.4575 3.03903 23.3559 2.90332C23.1826 2.66867 23.1694 2.34735 23.2894 2.01463C23.679 2.17311 23.9382 2.44977 23.9382 2.76497C23.9382 2.91557 23.8787 3.05741 23.7745 3.18262Z" fill="#F9F0E2"/>
<path d="M13.2809 16.1041C12.9605 16.1041 12.6882 15.9973 12.527 15.7802C12.4684 15.7005 12.4272 15.6112 12.4045 15.5149C12.8528 15.1472 13.1294 14.6831 13.175 14.2751C13.4867 14.2453 13.7371 14.1131 13.8509 13.8846C13.9069 13.7725 13.9244 13.6491 13.9087 13.5204C14.1302 13.4398 14.3473 13.3987 14.5461 13.3987C14.5592 13.3987 14.5724 13.3987 14.5855 13.3996C14.5855 13.5817 14.6713 13.7506 14.8193 13.8916C14.8385 14.0606 14.9322 14.2164 15.0793 14.346C14.5479 14.473 14.1696 14.7978 14.1696 15.1787C14.1696 15.3783 14.2738 15.563 14.4489 15.711C14.0584 15.971 13.639 16.1041 13.2809 16.1041Z" fill="#F6EBD9"/>
<path d="M15.0793 14.3459C14.9322 14.2164 14.8385 14.0605 14.8193 13.8915C14.9716 14.036 15.1897 14.1507 15.4453 14.219C15.4453 14.2435 15.4436 14.268 15.4409 14.2926C15.3149 14.3004 15.194 14.3188 15.0793 14.3459Z" fill="#F9F0E2"/>
<path d="M6.84894 14.9072C6.52848 14.9072 6.25619 14.8004 6.09509 14.5833C5.73874 14.1017 6.05656 13.2638 6.80253 12.6956C7.0039 12.7656 7.23505 12.805 7.48108 12.805C8.00116 12.805 8.45557 12.6273 8.69897 12.362C8.76376 12.4066 8.82067 12.4609 8.86795 12.524C9.04131 12.7577 9.05532 13.0747 8.93887 13.4048C8.24194 13.4573 7.70084 13.832 7.70084 14.2882C7.70084 14.4125 7.74025 14.5299 7.81292 14.6375C7.48371 14.8153 7.14575 14.9072 6.84894 14.9072Z" fill="#F6EBD9"/>
<path d="M7.48123 12.8051C7.2352 12.8051 7.00405 12.7657 6.80267 12.6956C6.8123 12.6886 6.82107 12.6816 6.8307 12.6746C7.25359 12.362 7.72026 12.2009 8.11426 12.2009C8.34016 12.2009 8.5424 12.2543 8.69913 12.362C8.45572 12.6273 8.00131 12.8051 7.48123 12.8051Z" fill="#F9F0E2"/>
<path d="M7.81294 14.6376C7.74027 14.5299 7.70087 14.4126 7.70087 14.2882C7.70087 13.8321 8.24196 13.4573 8.9389 13.4048C8.81282 13.7629 8.53177 14.1367 8.13252 14.4327C8.02833 14.5106 7.92063 14.5789 7.81294 14.6376Z" fill="#F9F0E2"/>
<path d="M3.28292 14.2891C2.96159 14.2891 2.68929 14.1822 2.52819 13.9642C2.16746 13.4783 2.49755 12.6255 3.26366 12.0581C3.63577 11.7815 4.04202 11.6239 4.40363 11.5906C4.3616 11.8366 4.40101 12.066 4.53322 12.2446C4.6952 12.4626 4.96749 12.5695 5.28795 12.5695C5.33523 12.5695 5.38251 12.5668 5.43066 12.5625C5.35887 12.9845 5.0498 13.4564 4.56649 13.8154C4.1436 14.128 3.67692 14.2891 3.28292 14.2891Z" fill="#F6EBD9"/>
<path d="M16.7 3.04083C16.4601 3.04083 16.1922 2.9848 15.9269 2.86923C16.0223 2.88236 16.1213 2.88936 16.222 2.88936C16.2841 2.88936 16.3454 2.88673 16.4058 2.88148C16.5057 2.94452 16.6212 2.99793 16.7473 3.03996C16.7315 3.04083 16.7158 3.04083 16.7 3.04083ZM15.2658 1.34575C15.2588 1.25994 15.2352 1.17063 15.1984 1.08133C15.3061 1.02179 15.4348 0.98328 15.5767 0.966644C15.5784 1.04457 15.5959 1.12073 15.6266 1.19252C15.4935 1.23192 15.3727 1.28358 15.2658 1.34575Z" fill="#F6EBD9"/>
<path d="M15.6265 1.1925C15.5959 1.12071 15.5784 1.04455 15.5766 0.966626C15.6309 0.959622 15.6869 0.956985 15.7447 0.956985C15.9864 0.956985 16.2569 1.01389 16.5248 1.13034C16.4276 1.11633 16.3261 1.10933 16.2219 1.10933C16.0091 1.10933 15.8078 1.1391 15.6265 1.1925Z" fill="#F9F0E2"/>
<path d="M16.2219 2.8894C16.1212 2.8894 16.0223 2.8824 15.9268 2.86927C15.8892 2.85351 15.8515 2.83599 15.8139 2.81673C15.6247 2.72217 15.4575 2.6066 15.3183 2.47877C15.3078 2.26952 15.1843 2.07864 14.9838 1.9298C15.0793 1.86676 15.1554 1.78533 15.2053 1.68551C15.2579 1.58132 15.2763 1.46574 15.2658 1.34579C15.3726 1.28362 15.4934 1.23197 15.6265 1.19257C15.7237 1.41758 15.9566 1.60671 16.2656 1.72228C16.0932 1.87025 15.9916 2.05324 15.9916 2.25024C15.9916 2.49715 16.1501 2.72041 16.4057 2.88152C16.3453 2.88677 16.284 2.8894 16.2219 2.8894Z" fill="#F9F0E2"/>
<path d="M16.2656 1.72223C15.9565 1.60666 15.7236 1.41753 15.6264 1.19252C15.8076 1.13911 16.009 1.10934 16.2218 1.10934C16.326 1.10934 16.4275 1.11635 16.5247 1.13036C16.5597 1.14524 16.5957 1.16188 16.6307 1.17939C16.7594 1.24418 16.8784 1.31861 16.9844 1.39916C16.6928 1.45607 16.4424 1.57076 16.2656 1.72223Z" fill="#FBF4E9"/>
<path d="M15.3183 2.47876C15.1423 2.31766 15.0119 2.13727 14.9374 1.95778C14.9532 1.94903 14.969 1.93941 14.9838 1.92978C15.1843 2.07863 15.3078 2.2695 15.3183 2.47876Z" fill="#FBF4E9"/>
<path d="M12.696 0.283691C12.851 0.0972101 13.1198 3.05176e-05 13.4358 3.05176e-05C13.674 3.05176e-05 13.9402 0.055181 14.2037 0.168996C13.6863 0.183879 13.1854 0.223282 12.696 0.283691Z" fill="white"/>
<path d="M14.8394 1.83691C14.5916 1.69945 14.2676 1.61627 13.913 1.61627C13.8789 1.61627 13.8447 1.61715 13.8106 1.6189C13.6477 1.48056 13.4227 1.41226 13.1653 1.41226C13.0856 1.41226 13.0033 1.41838 12.9184 1.43152C12.6005 1.09618 12.471 0.701313 12.6224 0.397492C12.6426 0.356341 12.668 0.318687 12.696 0.283664C13.1854 0.223251 13.6863 0.183845 14.2037 0.168961C14.2431 0.185596 14.2825 0.203993 14.3219 0.223256C14.7509 0.437769 15.0653 0.759959 15.1983 1.08129C15.081 1.14696 14.9882 1.23803 14.9304 1.3536C14.8718 1.4718 14.8551 1.60401 14.8753 1.74059C14.8604 1.77211 14.8481 1.80364 14.8394 1.83691Z" fill="#F6EBD9"/>
<path d="M14.9078 1.8772C14.8858 1.86315 14.863 1.84999 14.8393 1.83682C14.8481 1.80347 14.8604 1.77186 14.8753 1.74026C14.8823 1.78591 14.8937 1.83155 14.9078 1.8772Z" fill="#F9F0E2"/>
<path d="M14.391 2.08301C14.2824 2.08301 14.1686 2.07161 14.0521 2.04885C14.032 1.93415 13.9882 1.82822 13.9191 1.73541C13.8876 1.6925 13.8508 1.65309 13.8105 1.61895C13.8446 1.6172 13.8788 1.61632 13.9129 1.61632C14.2675 1.61632 14.5915 1.6995 14.8393 1.83697C14.8235 1.8895 14.8157 1.94377 14.8157 1.99893C14.8157 2.00419 14.8157 2.00858 14.8157 2.01383C14.6905 2.06024 14.546 2.08301 14.391 2.08301Z" fill="#F9F0E2"/>
<path d="M14.8156 2.01379C14.8156 2.00853 14.8156 2.00412 14.8156 1.99886C14.8156 1.94356 14.8235 1.88915 14.8393 1.83649C14.863 1.84965 14.8858 1.86282 14.9078 1.87686C14.9166 1.90407 14.9262 1.93127 14.9376 1.95761C14.8999 1.97867 14.8586 1.99799 14.8156 2.01379Z" fill="#FBF4E9"/>
<path d="M13.2608 1.7179C13.1303 1.63122 13.0156 1.53403 12.9184 1.4316C13.0033 1.41846 13.0856 1.41234 13.1653 1.41234C13.4227 1.41234 13.6477 1.48064 13.8106 1.61897C13.6136 1.62773 13.4271 1.66274 13.2608 1.7179Z" fill="#F9F0E2"/>
<path d="M14.0522 2.04883C13.8735 2.01381 13.6879 1.95165 13.5058 1.86059C13.4191 1.81682 13.3369 1.76953 13.2607 1.71787C13.427 1.66271 13.6135 1.6277 13.8105 1.61894C13.8508 1.65309 13.8876 1.6925 13.9191 1.7354C13.9883 1.8282 14.032 1.93413 14.0522 2.04883Z" fill="#FBF4E9"/>
<path d="M14.8753 1.7406C14.8552 1.60401 14.8718 1.47181 14.9304 1.35361C14.9882 1.23803 15.081 1.14697 15.1984 1.0813C15.2351 1.17061 15.2588 1.25992 15.2658 1.34572C15.0854 1.45166 14.9488 1.58738 14.8753 1.7406Z" fill="#F9F0E2"/>
<path d="M14.9838 1.92975C14.9592 1.91136 14.9338 1.89472 14.9076 1.87721C14.8936 1.83168 14.8822 1.78614 14.8752 1.74061C14.9487 1.58739 15.0853 1.45168 15.2657 1.34573C15.2762 1.46569 15.2578 1.58127 15.2053 1.68546C15.1554 1.78528 15.0792 1.86671 14.9838 1.92975Z" fill="#FBF4E9"/>
<path d="M14.9375 1.95776C14.9261 1.93143 14.9164 1.90423 14.9077 1.87701C14.934 1.89457 14.9594 1.91126 14.984 1.92969C14.9691 1.93935 14.9533 1.94899 14.9375 1.95776Z" fill="#FCF7EE"/>
<path d="M20.4526 3.4873C20.0971 3.45754 19.739 3.43567 19.3809 3.42078C19.3083 3.39364 19.2356 3.36211 19.1638 3.32622C18.8871 3.18788 18.6586 3.00489 18.4957 2.80614C18.6884 2.65379 18.8031 2.46116 18.8031 2.25015C18.8031 2.02338 18.6682 1.81587 18.4467 1.65827C18.6043 1.53044 18.8328 1.46565 19.092 1.46565C19.1174 1.46565 19.1428 1.46565 19.1691 1.46741C19.3853 1.77823 19.8739 1.99623 20.4447 1.99885C20.8501 2.35521 21.0331 2.81051 20.8633 3.1511C20.7836 3.31046 20.6382 3.42339 20.4526 3.4873Z" fill="#F6EBD9"/>
<path d="M20.048 3.54956C19.8396 3.54956 19.6111 3.50754 19.3808 3.42085C19.7389 3.43574 20.097 3.45761 20.4525 3.48738C20.3325 3.52853 20.1951 3.54956 20.048 3.54956Z" fill="white"/>
<path d="M20.4446 1.9989C19.8737 1.99627 19.3851 1.77828 19.1689 1.46745C19.4237 1.47971 19.7056 1.55238 19.9797 1.68897C20.1556 1.7774 20.3115 1.88245 20.4446 1.9989Z" fill="#F9F0E2"/>
<path d="M26.9816 3.44275C26.9115 3.39634 26.8467 3.3473 26.7863 3.29652C26.9877 3.21772 27.1908 3.10652 27.3852 2.96293C27.7555 2.68713 28.0235 2.34568 28.1618 2.01122C28.238 2.05499 28.3106 2.10314 28.3781 2.15304C28.47 2.38944 28.6617 2.62761 28.9244 2.82461C28.9524 2.89728 28.9717 2.96907 28.9804 3.03911C28.7712 2.96031 28.5269 2.91567 28.266 2.91567C27.6943 2.91567 27.2005 3.13193 26.9816 3.44275Z" fill="#F6EBD9"/>
<path d="M13.1582 13.9529C13.1345 13.8566 13.0943 13.7673 13.0347 13.6876C12.8736 13.4704 12.6022 13.3636 12.2817 13.3636C12.0375 13.3636 11.7643 13.4258 11.4911 13.5484C11.3825 13.4188 11.302 13.2813 11.2538 13.1456C11.4018 13.0791 11.5174 12.9766 11.5848 12.8418C11.6671 12.6763 11.6671 12.4846 11.5988 12.2911C11.7363 12.2298 11.9 12.1983 12.0804 12.1983C12.3553 12.1983 12.6661 12.2709 12.9682 12.4215C13.5049 12.6903 13.8621 13.1272 13.9085 13.5204C13.6914 13.6 13.4707 13.7174 13.2615 13.8723C13.2256 13.8986 13.1914 13.9257 13.1582 13.9529Z" fill="#F6EBD9"/>
<path d="M13.1748 14.2751C13.1879 14.1622 13.1827 14.0536 13.1581 13.9529C13.1914 13.9258 13.2256 13.8986 13.2615 13.8724C13.4707 13.7174 13.6914 13.6001 13.9085 13.5204C13.9243 13.6491 13.9068 13.7725 13.8507 13.8846C13.7369 14.1131 13.4865 14.2454 13.1748 14.2751Z" fill="#F9F0E2"/>
<path d="M10.7706 13.2393C10.4966 13.2393 10.1866 13.1666 9.88544 13.0169C9.18675 12.6658 8.79363 12.0319 8.98887 11.581C9.44241 11.5599 9.8364 11.4041 10.0693 11.1756C10.2742 11.2062 10.4904 11.2736 10.7032 11.3796C11.1559 11.6055 11.4807 11.9522 11.5989 12.291C11.4509 12.3567 11.3354 12.4591 11.2679 12.594C11.1856 12.7594 11.1865 12.9512 11.2539 13.1456C11.1165 13.2077 10.951 13.2393 10.7706 13.2393Z" fill="#F6EBD9"/>
<path d="M8.98895 11.5811C8.99333 11.5714 8.9977 11.5618 9.00208 11.553C9.13254 11.2921 9.44074 11.1555 9.8146 11.1555C9.8969 11.1555 9.98183 11.1625 10.0694 11.1757C9.83648 11.4042 9.44249 11.56 8.98895 11.5811Z" fill="#F9F0E2"/>
<path d="M11.254 13.1456C11.1866 12.9513 11.1857 12.7595 11.268 12.594C11.3354 12.4592 11.451 12.3568 11.599 12.2911C11.6673 12.4846 11.6673 12.6763 11.585 12.8418C11.5175 12.9767 11.402 13.0791 11.254 13.1456Z" fill="#F9F0E2"/>
<path d="M4.56118 9.27209C4.44473 9.23094 4.31427 9.21081 4.17418 9.21081C4.10413 9.21081 4.03234 9.21606 3.95792 9.22569C3.93077 9.21956 3.90364 9.21168 3.87562 9.2038C3.76705 8.85445 3.43609 8.49285 2.96854 8.25908C2.84597 8.19779 2.72163 8.14964 2.59905 8.11374C2.54214 7.93075 2.54564 7.7504 2.62269 7.59455C2.75403 7.33363 3.06223 7.19792 3.43697 7.19792C3.71189 7.19792 4.02184 7.2706 4.32303 7.42207C5.03573 7.77754 5.43148 8.43245 5.20646 8.88336C5.09614 9.10487 4.85887 9.23707 4.56118 9.27209Z" fill="#F6EBD9"/>
<path d="M7.20447 6.4021C6.94706 6.20773 6.55918 6.08341 6.12666 6.08341C5.88676 6.08341 5.65999 6.12193 5.46212 6.18935C4.91489 5.81811 4.63909 5.27001 4.83521 4.87514C4.96567 4.61335 5.27387 4.47763 5.64773 4.47763C5.92266 4.47763 6.2326 4.55031 6.53467 4.7009C7.24737 5.05725 7.64399 5.71129 7.41723 6.16307C7.36907 6.26026 7.2964 6.33994 7.20447 6.4021Z" fill="#F6EBD9"/>
<path d="M6.60295 6.5614C6.32802 6.5614 6.01894 6.48872 5.71863 6.339C5.62757 6.29346 5.54177 6.24356 5.4621 6.18927C5.65997 6.12185 5.88674 6.08333 6.12664 6.08333C6.55916 6.08333 6.94704 6.20765 7.20445 6.40204C7.0486 6.50711 6.83847 6.5614 6.60295 6.5614Z" fill="#F9F0E2"/>
<path d="M11.0823 2.89551C11.0683 2.89201 11.0543 2.88849 11.0394 2.88499C10.8433 2.83333 10.6629 2.75979 10.5053 2.66961C10.5167 2.66961 10.5281 2.67048 10.5395 2.67048C10.9151 2.67048 11.2233 2.53389 11.3537 2.2721C11.5359 1.907 11.3135 1.41056 10.8459 1.04545C10.8809 1.0437 10.9168 1.04195 10.9527 1.04195C11.1261 1.04195 11.3091 1.06472 11.4956 1.11199C11.8616 1.20743 12.1715 1.38254 12.3834 1.59267C12.2135 1.6671 12.0446 1.76517 11.8817 1.88599C11.4895 2.17668 11.2119 2.54266 11.0823 2.89551Z" fill="#F6EBD9"/>
<path d="M11.5813 2.95508C11.4219 2.95508 11.2538 2.93582 11.0822 2.89555C11.2118 2.54269 11.4894 2.17671 11.8816 1.88602C12.0444 1.76519 12.2134 1.66712 12.3833 1.5927C12.5365 1.74505 12.6389 1.91665 12.6722 2.08913C12.5671 2.21346 12.5076 2.35531 12.5076 2.50678C12.5076 2.54618 12.512 2.58471 12.5199 2.62236C12.3264 2.83425 11.9814 2.95508 11.5813 2.95508Z" fill="#F9F0E2"/>
<path d="M12.52 2.62231C12.5121 2.58467 12.5078 2.54614 12.5078 2.50674C12.5078 2.35527 12.5673 2.21342 12.6723 2.0891C12.689 2.17928 12.6881 2.26947 12.6653 2.3579C12.64 2.45683 12.59 2.54614 12.52 2.62231Z" fill="#FBF4E9"/>
<path d="M21.3001 2.336C21.1197 2.2283 20.9639 2.10135 20.8395 1.96564C21.4297 1.85969 21.8631 1.51735 21.8631 1.10934C21.8631 0.905329 21.7545 0.717089 21.5724 0.567368C21.7948 0.593634 22.032 0.663672 22.2649 0.77837C22.8507 1.07256 23.2228 1.56725 23.2106 1.9849C23.0092 1.91485 22.778 1.87458 22.532 1.87458C22.0014 1.87458 21.5391 2.06107 21.3001 2.336Z" fill="#F6EBD9"/>
<path d="M20.8395 1.9657C20.5365 1.63474 20.4166 1.25036 20.5654 0.953551C20.695 0.69176 21.0032 0.556046 21.3779 0.556046C21.441 0.556046 21.5058 0.559559 21.5723 0.567439C21.7544 0.717159 21.863 0.905398 21.863 1.1094C21.863 1.51741 21.4296 1.85976 20.8395 1.9657Z" fill="#F9F0E2"/>
<path d="M22.3331 2.63977C22.0591 2.63977 21.7492 2.5671 21.448 2.4165C21.3972 2.39111 21.3473 2.36398 21.3 2.33596C21.539 2.06104 22.0013 1.87454 22.5319 1.87454C22.7779 1.87454 23.0091 1.91482 23.2104 1.98486C23.2078 2.07504 23.1868 2.16172 23.1474 2.24139C23.017 2.50318 22.7079 2.63977 22.3331 2.63977Z" fill="#F9F0E2"/>
<path d="M26.7547 5.15967C26.5735 5.15967 26.3765 5.12728 26.1769 5.06249C25.9414 4.90139 25.6796 4.75341 25.395 4.61858C24.9957 4.2631 24.8163 3.8113 24.9852 3.47246C25.0605 3.32012 25.198 3.21067 25.374 3.145C25.5377 3.34025 25.7978 3.4357 26.1016 3.4357C26.296 3.4357 26.5087 3.39716 26.725 3.31924C26.8099 3.36389 26.8905 3.41292 26.9658 3.46545C26.8966 3.57052 26.8589 3.68523 26.8589 3.80606C26.8589 4.15015 27.1689 4.4496 27.6216 4.59669C27.6119 4.6501 27.5953 4.70176 27.5725 4.75079C27.2801 4.83222 27.0402 4.97492 26.8922 5.15353C26.8476 5.15791 26.802 5.15967 26.7547 5.15967Z" fill="#F6EBD9"/>
<path d="M26.1769 5.0625C26.1734 5.06162 26.1698 5.06075 26.1663 5.05899C25.9352 4.90139 25.6795 4.75692 25.402 4.62471C25.3993 4.62208 25.3976 4.62033 25.395 4.61858C25.6795 4.75342 25.9413 4.90139 26.1769 5.0625Z" fill="white"/>
<path d="M26.1664 5.05896C26.0666 5.02656 25.9668 4.9854 25.8678 4.93549C25.6919 4.84794 25.5351 4.74114 25.402 4.62469C25.6796 4.7569 25.9353 4.90136 26.1664 5.05896Z" fill="#FFCDB1"/>
<path d="M26.8923 5.15356C27.0402 4.97495 27.2801 4.83225 27.5726 4.75082C27.5708 4.75433 27.5691 4.75869 27.5673 4.7622C27.4535 4.99071 27.204 5.1238 26.8923 5.15356Z" fill="#F9F0E2"/>
<path d="M2.90903 11.9164C2.58858 11.9164 2.31628 11.8096 2.1543 11.5924C1.86275 11.1984 2.02297 10.5645 2.5019 10.0357C2.68751 10.0917 2.86963 10.1197 3.03861 10.1197C3.41247 10.1197 3.72154 9.98317 3.85113 9.72138C3.9238 9.57604 3.93255 9.4088 3.88615 9.23719C3.90979 9.23282 3.9343 9.2293 3.95794 9.2258C4.10854 9.26345 4.25475 9.28185 4.39309 9.28185C4.45087 9.28185 4.50691 9.27834 4.5612 9.27221C4.71092 9.32474 4.837 9.41229 4.92806 9.534C4.9876 9.61455 5.02786 9.70561 5.05063 9.8028C4.28627 9.81068 3.66989 10.2055 3.66989 10.6932C3.66989 10.9857 3.89316 11.2457 4.23725 11.4077C4.22236 11.4191 4.20748 11.4305 4.19259 11.4418C3.7697 11.7553 3.30303 11.9164 2.90903 11.9164Z" fill="#F6EBD9"/>
<path d="M4.23723 11.4077C3.89313 11.2457 3.66986 10.9856 3.66986 10.6932C3.66986 10.2055 4.28625 9.81063 5.05062 9.80275C5.11454 10.0724 5.04275 10.3972 4.85888 10.7133C4.75819 10.828 4.67238 10.9471 4.60233 11.067C4.49639 11.187 4.37469 11.3017 4.23723 11.4077Z" fill="#F9F0E2"/>
<path d="M4.39308 9.2818C4.25475 9.2818 4.10854 9.2634 3.95795 9.22575C4.03237 9.21612 4.10416 9.21088 4.1742 9.21088C4.31428 9.21088 4.44474 9.23101 4.56119 9.27216C4.5069 9.27829 4.45087 9.2818 4.39308 9.2818Z" fill="#F9F0E2"/>
<path d="M7.5844 11.0276C7.55026 11.0258 7.5161 11.025 7.48108 11.025C7.45131 11.025 7.42154 11.0258 7.39177 11.0267C7.49334 10.7115 7.4732 10.4112 7.30685 10.1879C7.14574 9.97079 6.87345 9.86397 6.55387 9.86397C6.35687 9.86397 6.14236 9.90426 5.92434 9.98306C5.78513 9.91652 5.6249 9.86484 5.45154 9.83507C5.43666 9.70724 5.45416 9.58555 5.50932 9.47523C5.6389 9.21344 5.9471 9.07773 6.32184 9.07773C6.4882 9.07773 6.66769 9.10399 6.84981 9.15827C6.97939 9.28085 7.15363 9.3544 7.35413 9.37979C7.64131 9.5514 7.86634 9.77205 8.0038 10.0006C7.6851 10.1634 7.48108 10.4129 7.48108 10.6931C7.48108 10.8113 7.51786 10.9243 7.5844 11.0276Z" fill="#F6EBD9"/>
<path d="M7.34198 11.1599C7.36129 11.1151 7.37796 11.0703 7.39201 11.0264C7.42185 11.0256 7.4517 11.0247 7.48154 11.0247C7.51665 11.0247 7.55089 11.0256 7.58512 11.0273C7.60268 11.0554 7.62374 11.0835 7.64656 11.1107C7.55352 11.1388 7.45082 11.1555 7.34198 11.1599Z" fill="#F9F0E2"/>
<path d="M7.80071 11.0478C7.73067 11.0373 7.658 11.0303 7.58446 11.0277C7.51792 10.9243 7.48114 10.8114 7.48114 10.6932C7.48114 10.413 7.68515 10.1635 8.00384 10.0006C8.16144 10.2633 8.20347 10.5382 8.09227 10.7624C8.03099 10.8858 7.92942 10.9812 7.80071 11.0478Z" fill="#F9F0E2"/>
<path d="M7.64585 11.1108C7.62303 11.0836 7.60197 11.0555 7.58441 11.0275C7.65814 11.0301 7.73099 11.0371 7.80121 11.0476C7.75293 11.0731 7.70115 11.0942 7.64585 11.1108Z" fill="#FBF4E9"/>
<path d="M5.55142 10.1547C5.49713 10.0479 5.46298 9.93933 5.4516 9.83514C5.62496 9.86491 5.78519 9.91658 5.92441 9.98312C5.80008 10.0278 5.67487 10.0856 5.55142 10.1547Z" fill="#F9F0E2"/>
<path d="M7.35411 9.37988C7.15361 9.35449 6.97937 9.28094 6.84979 9.15836C6.96887 9.19425 7.08969 9.24155 7.20877 9.30109C7.25867 9.3256 7.30683 9.35274 7.35411 9.37988Z" fill="#F9F0E2"/>
<path d="M19.1673 14.5964C19.0482 14.5964 18.9212 14.5824 18.7917 14.5544C18.6945 14.4835 18.5877 14.4178 18.4721 14.3609C18.3031 14.276 18.1306 14.2164 17.9643 14.1797C17.8329 14.0842 17.72 13.9783 17.6263 13.8671C17.6272 13.854 17.628 13.84 17.628 13.8268C17.628 13.6447 17.5414 13.4757 17.3943 13.3348C17.3873 13.2673 17.3671 13.2026 17.3373 13.1395C17.3435 13.059 17.3636 12.9819 17.3995 12.9101C17.5291 12.6483 17.8373 12.5126 18.212 12.5126C18.4861 12.5126 18.7969 12.5853 19.0999 12.7368C19.4763 12.925 19.7644 13.1964 19.9185 13.4783C19.4326 13.6184 19.0955 13.9284 19.0955 14.2882C19.0955 14.3968 19.1252 14.5001 19.1813 14.5964C19.1769 14.5964 19.1725 14.5964 19.1673 14.5964Z" fill="#F6EBD9"/>
<path d="M17.6263 13.8671C17.5203 13.7419 17.4415 13.6097 17.3925 13.4783C17.396 13.4521 17.3978 13.4249 17.3978 13.3987C17.3978 13.3768 17.3969 13.3558 17.3943 13.3347C17.5414 13.4757 17.628 13.6447 17.628 13.8268C17.628 13.8399 17.6272 13.8539 17.6263 13.8671Z" fill="#F9F0E2"/>
<path d="M18.5429 16.2197C18.268 16.2197 17.9572 16.1471 17.6551 15.9965C17.3478 15.8424 17.1 15.6331 16.9346 15.4098C16.9661 15.3363 16.9827 15.2583 16.9827 15.1787C16.9827 14.9878 16.8873 14.8101 16.7253 14.6647C16.7253 14.6621 16.7262 14.6595 16.727 14.6568C17.1018 14.5658 17.3995 14.3758 17.5396 14.1376C17.5544 14.1368 17.5693 14.1368 17.5842 14.1368C17.705 14.1368 17.8329 14.1508 17.9642 14.1797C18.0614 14.2506 18.1673 14.3154 18.282 14.3732C18.4519 14.4581 18.6244 14.5176 18.7916 14.5544C19.2968 14.9221 19.5437 15.4431 19.3555 15.8222C19.225 16.084 18.9168 16.2197 18.5429 16.2197Z" fill="#F6EBD9"/>
<path d="M16.727 14.6569C16.7375 14.614 16.7524 14.5728 16.7716 14.5325C16.8969 14.283 17.1858 14.1473 17.5395 14.1377C17.3994 14.3758 17.1017 14.5658 16.727 14.6569Z" fill="#F9F0E2"/>
<path d="M18.7917 14.5544C18.6245 14.5177 18.452 14.4581 18.2821 14.3732C18.1674 14.3154 18.0615 14.2506 17.9643 14.1797C18.1306 14.2165 18.3031 14.276 18.4721 14.3609C18.5877 14.4179 18.6945 14.4835 18.7917 14.5544Z" fill="#F9F0E2"/>
<path d="M25.1533 15.8546C25.2163 15.753 25.2513 15.6427 25.2513 15.5263C25.2513 15.0333 24.6209 14.6367 23.8443 14.6367C23.5387 14.6367 23.2568 14.698 23.0257 14.8022C22.9723 14.6665 22.9521 14.5308 22.9688 14.4047C22.9819 14.4047 22.9959 14.4047 23.009 14.4047C23.3838 14.4047 23.6937 14.2681 23.8233 14.0072C23.8531 13.9477 23.8715 13.8846 23.8802 13.8198C24.1446 13.8268 24.4388 13.8995 24.7269 14.0422C24.9747 14.1665 25.1839 14.3268 25.3424 14.5019C25.3319 14.5457 25.3266 14.5903 25.3266 14.6367C25.3266 14.8609 25.4571 15.0649 25.6725 15.2216C25.6734 15.3205 25.6532 15.416 25.6103 15.5044C25.5236 15.676 25.3608 15.7942 25.1533 15.8546Z" fill="#F6EBD9"/>
<path d="M26.754 13.6675C26.4799 13.6675 26.1691 13.594 25.8679 13.4442C25.1552 13.0861 24.7594 12.4329 24.9853 11.9803C25.0624 11.8244 25.2042 11.7124 25.3855 11.6485C25.2883 11.9593 25.3093 12.2561 25.473 12.4776C25.635 12.6956 25.9073 12.8016 26.2278 12.8016C26.4466 12.8016 26.6874 12.7525 26.9308 12.6545C26.8844 12.7429 26.859 12.8375 26.859 12.9364C26.859 13.1798 27.014 13.4004 27.2635 13.5607C27.1217 13.6316 26.9466 13.6675 26.754 13.6675Z" fill="#F6EBD9"/>
<path d="M33.2707 9.39911C33.402 9.13469 33.5237 8.86854 33.6349 8.60062C33.6848 8.77485 33.6778 8.94557 33.6043 9.09442C33.536 9.23013 33.4195 9.33257 33.2707 9.39911Z" fill="#6B655B"/>
<path d="M32.7883 9.4928C32.6911 9.4928 32.5887 9.48316 32.4845 9.46477C32.4626 9.01299 31.9092 8.64615 31.2079 8.60587C31.1615 8.56209 31.1116 8.52093 31.0591 8.48065C30.9426 8.24513 30.9207 8.0061 31.0197 7.80648C31.1501 7.54469 31.4583 7.4081 31.8331 7.4081C32.108 7.4081 32.4188 7.48165 32.7209 7.63224C33.1989 7.87127 33.5343 8.24426 33.6349 8.60061C33.5238 8.86853 33.402 9.13469 33.2707 9.39911C33.1341 9.46127 32.9686 9.4928 32.7883 9.4928Z" fill="#F6EBD9"/>
<path d="M28.604 11.4155C28.5812 11.4041 28.5576 11.3936 28.5348 11.3823C28.463 11.3455 28.3938 11.307 28.329 11.2658C28.3387 11.2352 28.3474 11.2054 28.3544 11.1756C28.5856 11.0968 28.8211 10.9743 29.0435 10.8088C29.3605 10.5733 29.603 10.2887 29.7527 10.0024C30.0084 10.2099 30.187 10.4559 30.2605 10.6958C30.2334 10.6941 30.2054 10.6941 30.1773 10.6941C29.7833 10.6941 29.3167 10.8552 28.8938 11.1678C28.7887 11.2457 28.6924 11.3288 28.604 11.4155Z" fill="#F6EBD9"/>
<path d="M31.2744 3.42603C31.0179 3.3122 30.7587 3.25268 30.5232 3.24568C30.5066 3.23605 30.4908 3.22641 30.475 3.21678C30.6983 3.15899 30.8726 3.03816 30.9627 2.85867C31.1667 2.44891 30.862 1.87367 30.2719 1.50419C30.3726 1.4788 30.4821 1.46567 30.5985 1.46567C30.8734 1.46567 31.1843 1.53834 31.4872 1.68894C31.9801 1.93584 32.3216 2.32459 32.41 2.69144C32.1605 2.76849 31.9031 2.89894 31.6597 3.07843C31.5152 3.18613 31.3865 3.30345 31.2744 3.42603Z" fill="#F6EBD9"/>
<path d="M22.969 14.4047C22.9628 14.4047 22.9576 14.4047 22.9515 14.4038C22.9576 14.4012 22.9637 14.3985 22.9698 14.3959C22.9698 14.3985 22.969 14.4012 22.969 14.4047ZM23.7745 13.8207C23.8139 13.7795 23.8507 13.7384 23.8857 13.6963C23.8874 13.7384 23.8865 13.7795 23.8804 13.8198C23.8673 13.8189 23.8533 13.8189 23.8393 13.8189C23.8174 13.8189 23.7964 13.8198 23.7745 13.8207ZM21.308 13.4459C21.1671 13.1938 21.1347 12.9337 21.2415 12.7192C21.3711 12.4574 21.6801 12.3208 22.0549 12.3208C22.096 12.3208 22.1381 12.3226 22.1801 12.3261C22.1643 12.3375 22.1486 12.3489 22.1337 12.3602C21.7125 12.6728 21.4236 13.0703 21.308 13.4459Z" fill="#F6EBD9"/>
<path d="M23.0092 14.4047C22.9961 14.4047 22.9821 14.4047 22.9689 14.4047C22.9689 14.4012 22.9698 14.3985 22.9698 14.3959C23.1274 14.3232 23.285 14.2304 23.4365 14.1175C23.5617 14.0256 23.6746 13.9249 23.7744 13.8207C23.7963 13.8198 23.8173 13.8189 23.8392 13.8189C23.8532 13.8189 23.8672 13.8189 23.8804 13.8198C23.8716 13.8846 23.8532 13.9476 23.8235 14.0072C23.6939 14.2681 23.3839 14.4047 23.0092 14.4047Z" fill="#F9F0E2"/>
<path d="M29.0269 8.39398C28.879 8.35633 28.7284 8.30118 28.5795 8.22676C27.866 7.86953 27.472 7.21548 27.6961 6.76369C27.7661 6.6236 27.887 6.52028 28.0419 6.45373C28.0743 6.45461 28.1067 6.45549 28.1391 6.45549C28.3423 6.45549 28.5358 6.42833 28.7109 6.3793C28.8002 6.38981 28.8912 6.40733 28.984 6.43272C28.984 6.4406 28.984 6.44761 28.984 6.45549C28.984 6.91166 29.5234 7.28639 30.2203 7.3398C30.3543 7.58671 30.3841 7.84151 30.279 8.05164C30.272 8.06565 30.2641 8.07966 30.2562 8.09367C30.1048 8.05514 29.9577 8.03677 29.8185 8.03677C29.463 8.03677 29.167 8.15933 29.0269 8.39398Z" fill="#F6EBD9"/>
<path d="M28.1391 6.45544C28.1067 6.45544 28.0743 6.45457 28.0419 6.45369C28.1759 6.3959 28.3361 6.367 28.5095 6.367C28.5751 6.367 28.6417 6.3705 28.7108 6.37925C28.5357 6.42829 28.3422 6.45544 28.1391 6.45544Z" fill="#F9F0E2"/>
<path d="M1.30317 9.0979C1.1911 8.86588 1.17097 8.63037 1.26903 8.43249C1.35483 8.26088 1.51768 8.14356 1.72606 8.08315C1.56671 8.42199 1.42663 8.76081 1.30317 9.0979Z" fill="white"/>
<path d="M2.50178 10.0356C2.38534 10.0006 2.26801 9.95335 2.15156 9.89557C1.74969 9.69419 1.44938 9.39911 1.30316 9.09792C1.42661 8.76083 1.5667 8.422 1.72605 8.08316C1.83374 8.05164 1.95457 8.03587 2.0824 8.03587C2.24525 8.03587 2.42036 8.06126 2.59897 8.11379C2.70841 8.46226 3.03937 8.82387 3.50604 9.05765C3.62949 9.11894 3.75295 9.16796 3.87553 9.20386C3.87903 9.21524 3.88253 9.22576 3.88603 9.23714C3.56295 9.29493 3.21361 9.44552 2.88966 9.68542C2.74432 9.79311 2.61385 9.91131 2.50178 10.0356Z" fill="#F6EBD9"/>
<path d="M3.87564 9.20386C3.75306 9.16796 3.6296 9.11894 3.50614 9.05765C3.03947 8.82387 2.70851 8.46227 2.59906 8.1138C2.72164 8.1497 2.84598 8.19785 2.96856 8.25913C3.43611 8.49291 3.76707 8.85451 3.87564 9.20386Z" fill="#F9F0E2"/>
<path d="M3.03861 10.1198C2.86963 10.1198 2.68751 10.0917 2.50189 10.0357C2.61396 9.91137 2.74443 9.79317 2.88977 9.68548C3.21373 9.44557 3.56308 9.29499 3.88617 9.2372C3.93257 9.40881 3.92382 9.57604 3.85114 9.72139C3.72156 9.98318 3.41248 10.1198 3.03861 10.1198Z" fill="#F9F0E2"/>
<path d="M29.8621 9.04712C29.8402 8.99546 29.8122 8.94731 29.7789 8.90178C29.6178 8.68377 29.3446 8.57695 29.0242 8.57695C29.0014 8.57695 28.9787 8.57783 28.955 8.57871C28.9655 8.5288 28.9821 8.47978 29.0049 8.43337C29.0119 8.42024 29.0189 8.40709 29.0268 8.39395C29.1774 8.4316 29.3254 8.45 29.4646 8.45C29.8192 8.45 30.1142 8.32829 30.2561 8.09364C30.4049 8.13042 30.5564 8.18557 30.7061 8.25999C30.8348 8.32478 30.953 8.39921 31.0589 8.48063C31.0791 8.52091 31.1027 8.56207 31.1281 8.60235C31.1123 8.60235 31.0957 8.60235 31.08 8.60235C30.559 8.60235 30.1046 8.78095 29.8621 9.04712Z" fill="#F6EBD9"/>
<path d="M31.2082 8.60583C31.1819 8.60408 31.1556 8.6032 31.1284 8.60232C31.1029 8.56194 31.0792 8.52068 31.059 8.4803C31.1117 8.52068 31.1617 8.56195 31.2082 8.60583Z" fill="#F9F0E2"/>
<path d="M29.4646 8.45001C29.3254 8.45001 29.1774 8.43161 29.0268 8.39397C29.1669 8.15932 29.4628 8.03676 29.8183 8.03676C29.9575 8.03676 30.1046 8.05514 30.2561 8.09366C30.1142 8.32831 29.8192 8.45001 29.4646 8.45001Z" fill="#F9F0E2"/>
<path d="M32.7883 7.40808C32.5134 7.40808 32.2035 7.33543 31.9023 7.18483C31.7718 7.12004 31.6527 7.04474 31.5459 6.96332C31.7035 6.81885 31.7963 6.64461 31.7963 6.45549C31.7963 6.11403 31.4934 5.81809 31.0495 5.66925C31.1931 5.44248 31.4838 5.32516 31.8314 5.32516C32.1063 5.32516 32.4162 5.39782 32.7192 5.54841C33.4319 5.90389 33.8285 6.55794 33.6026 7.0106C33.4721 7.27239 33.1631 7.40808 32.7883 7.40808Z" fill="#F6EBD9"/>
<path d="M31.4329 5.32953C31.1579 5.32953 30.848 5.256 30.5468 5.10628C30.0328 4.84799 29.6844 4.43646 29.6135 4.05735C29.6502 3.97767 29.6704 3.89275 29.6704 3.80607C29.6704 3.75792 29.6642 3.71063 29.6529 3.66422C29.6564 3.65722 29.659 3.65021 29.6634 3.64233C29.7938 3.38142 30.1029 3.24573 30.4776 3.24573C30.4925 3.24573 30.5083 3.24573 30.5232 3.24573C30.5704 3.27462 30.6195 3.30088 30.6694 3.32627C30.8462 3.4147 31.0266 3.47598 31.2 3.51188C30.7779 4.02233 30.6475 4.61246 30.9233 4.98632C31.0844 5.2017 31.354 5.30764 31.6719 5.30939C31.5957 5.32253 31.516 5.32953 31.4329 5.32953Z" fill="#F6EBD9"/>
<path d="M31.1999 3.51184C31.0266 3.47594 30.8462 3.41467 30.6693 3.32624C30.6194 3.30085 30.5704 3.27459 30.5231 3.2457C30.7587 3.2527 31.0178 3.31222 31.2744 3.42604C31.249 3.45406 31.2245 3.48295 31.1999 3.51184Z" fill="#F9F0E2"/>
<path d="M30.1485 3.25623C29.8735 3.25623 29.5636 3.18267 29.2615 3.03295C29.1398 2.97167 29.0269 2.90163 28.9244 2.82458C28.8325 2.58818 28.6416 2.35001 28.3781 2.15301C28.2984 1.94813 28.2932 1.74326 28.3799 1.56902C28.5094 1.30898 28.8176 1.17239 29.1924 1.17239C29.4673 1.17239 29.7772 1.24595 30.0793 1.39654C30.1467 1.42981 30.2106 1.46571 30.2719 1.50423C30.0495 1.56202 29.8762 1.68198 29.786 1.86234C29.582 2.27123 29.8867 2.84559 30.4751 3.21683C30.3752 3.2431 30.2649 3.25623 30.1485 3.25623Z" fill="#F6EBD9"/>
<path d="M28.9245 2.82458C28.6618 2.62758 28.4701 2.38942 28.3781 2.15302C28.6417 2.35002 28.8325 2.58818 28.9245 2.82458Z" fill="#F9F0E2"/>
<path d="M30.4749 3.2168C29.8866 2.84556 29.5819 2.27119 29.7859 1.86231C29.8761 1.68194 30.0494 1.56198 30.2718 1.5042C30.8619 1.87368 31.1666 2.44892 30.9626 2.85869C30.8725 3.03817 30.6982 3.15901 30.4749 3.2168Z" fill="#F9F0E2"/>
<path d="M8.71396 1.35364C8.69733 1.22318 8.71485 1.0971 8.77089 0.984158C8.90134 0.722368 9.21042 0.586655 9.58516 0.586655C9.82769 0.586655 10.0991 0.643565 10.367 0.760888C9.79179 0.928118 9.24017 1.12775 8.71396 1.35364Z" fill="white"/>
<path d="M10.5052 2.66962C10.2399 2.66436 9.94309 2.59081 9.65415 2.44722C9.12006 2.1793 8.76459 1.74502 8.71381 1.35365C9.24002 1.12776 9.79163 0.928126 10.3669 0.760895C10.4019 0.775779 10.4369 0.79242 10.4719 0.809931C10.6085 0.878225 10.7346 0.957895 10.8458 1.04545C10.3494 1.07259 9.95799 1.29148 9.86868 1.63821C9.77675 2.00331 10.0438 2.40607 10.5052 2.66962Z" fill="#F6EBD9"/>
<path d="M10.5395 2.67053C10.5281 2.67053 10.5167 2.66966 10.5053 2.66966C10.0439 2.40611 9.77686 2.00335 9.86879 1.63824C9.9581 1.29152 10.3495 1.07263 10.8459 1.04549C11.3134 1.4106 11.5358 1.90704 11.3537 2.27215C11.2233 2.53394 10.9151 2.67053 10.5395 2.67053Z" fill="#F9F0E2"/>
<path d="M5.43053 12.5625C5.47256 12.3165 5.43403 12.0871 5.30094 11.9076C5.13984 11.6905 4.86667 11.5836 4.54622 11.5836C4.49981 11.5836 4.45166 11.5863 4.4035 11.5906C4.40963 11.5547 4.41751 11.5188 4.42715 11.4829C4.62064 11.5469 4.84041 11.5828 5.07418 11.5828C5.70895 11.5828 6.24479 11.3175 6.42078 10.9523C6.57137 11.025 6.72285 11.0784 6.87169 11.1126C6.40064 11.257 6.07494 11.5617 6.07494 11.9155C6.07494 12.059 6.12834 12.1948 6.22378 12.3147C5.95586 12.4557 5.68182 12.5397 5.43053 12.5625Z" fill="#F6EBD9"/>
<path d="M6.22386 12.3147C6.12842 12.1947 6.07501 12.059 6.07501 11.9154C6.07501 11.5617 6.40072 11.257 6.87178 11.1126C7.01187 11.145 7.14846 11.1616 7.27717 11.1616C7.29906 11.1616 7.32095 11.1607 7.34196 11.1598C7.20187 11.4891 6.93569 11.8244 6.57058 12.0958C6.45763 12.1799 6.34118 12.2525 6.22386 12.3147Z" fill="#F9F0E2"/>
<path d="M5.07422 11.5828C4.84045 11.5828 4.62068 11.5469 4.42719 11.4829C4.46221 11.3464 4.52174 11.2063 4.6023 11.0671C4.70298 10.9524 4.78879 10.8333 4.85884 10.7133C4.97616 10.5802 5.11362 10.4533 5.26947 10.3377C5.3614 10.2694 5.45597 10.209 5.5514 10.1547C5.69937 10.4507 5.99706 10.7396 6.39193 10.9384C6.40156 10.9436 6.41119 10.948 6.42082 10.9524C6.24484 11.3175 5.709 11.5828 5.07422 11.5828Z" fill="#F9F0E2"/>
<path d="M5.2879 12.5695C4.96745 12.5695 4.69516 12.4626 4.53318 12.2446C4.40097 12.066 4.36156 11.8366 4.40359 11.5906C4.45174 11.5862 4.4999 11.5836 4.5463 11.5836C4.86676 11.5836 5.13993 11.6904 5.30103 11.9075C5.43411 12.087 5.47265 12.3164 5.43062 12.5624C5.38246 12.5668 5.33518 12.5695 5.2879 12.5695Z" fill="#F9F0E2"/>
<path d="M4.60236 11.067C4.67258 10.9468 4.75861 10.8274 4.85956 10.7124C4.78933 10.8327 4.7033 10.952 4.60236 11.067Z" fill="#FBF4E9"/>
<path d="M6.87184 11.1125C6.723 11.0784 6.57153 11.025 6.42093 10.9523C6.46033 10.87 6.48135 10.7833 6.48135 10.6932C6.48135 10.4033 6.26334 10.1459 5.9245 9.98308C6.14251 9.90428 6.35702 9.864 6.55402 9.864C6.8736 9.864 7.14589 9.97081 7.30699 10.188C7.47335 10.4112 7.49348 10.7115 7.39192 11.0267C7.2063 11.0338 7.0312 11.0644 6.87184 11.1125Z" fill="#F9F0E2"/>
<path d="M7.27718 11.1616C7.14846 11.1616 7.01186 11.145 6.87177 11.1126C7.03113 11.0644 7.20625 11.0338 7.39188 11.0268C7.37787 11.0706 7.36123 11.1152 7.34197 11.1599C7.32096 11.1607 7.29907 11.1616 7.27718 11.1616Z" fill="#FBF4E9"/>
<path d="M6.42086 10.9523C6.41123 10.948 6.4016 10.9436 6.39197 10.9383C5.9971 10.7396 5.69942 10.4507 5.55145 10.1547C5.6749 10.0855 5.80011 10.0278 5.92443 9.98311C6.26327 10.146 6.48128 10.4034 6.48128 10.6932C6.48128 10.7834 6.46026 10.87 6.42086 10.9523Z" fill="#FBF4E9"/>
<path d="M11.0167 16.0691C10.6962 16.0691 10.4239 15.9623 10.2619 15.7451C10.0868 15.5087 10.0754 15.1856 10.1971 14.8512C10.3889 14.7015 10.5062 14.5115 10.5123 14.304C10.6445 14.1376 10.8074 13.9791 10.9974 13.8382C11.1576 13.72 11.3248 13.6228 11.4912 13.5484C11.6541 13.7427 11.8791 13.9222 12.1505 14.0579C12.3799 14.1718 12.6137 14.2418 12.8334 14.2689C12.4797 14.6805 12.316 15.148 12.4044 15.5149C12.3711 15.542 12.3361 15.5691 12.3011 15.5954C11.8782 15.908 11.4107 16.0691 11.0167 16.0691Z" fill="#F6EBD9"/>
<path d="M10.1972 14.8512C10.2637 14.6682 10.3706 14.4817 10.5124 14.304C10.5063 14.5115 10.389 14.7015 10.1972 14.8512Z" fill="#F9F0E2"/>
<path d="M12.4044 15.5149C12.316 15.148 12.4797 14.6805 12.8334 14.269C12.9026 14.2777 12.9709 14.2821 13.0374 14.2821C13.0847 14.2821 13.1302 14.2795 13.1749 14.2751C13.1294 14.6831 12.8527 15.1472 12.4044 15.5149Z" fill="#F9F0E2"/>
<path d="M12.8334 14.2689C12.6136 14.2418 12.3798 14.1717 12.1504 14.0579C11.879 13.9222 11.654 13.7427 11.4911 13.5483C11.7643 13.4258 12.0375 13.3636 12.2818 13.3636C12.6022 13.3636 12.8737 13.4704 13.0348 13.6875C13.0943 13.7672 13.1346 13.8565 13.1582 13.9528C13.0365 14.0518 12.9279 14.1586 12.8334 14.2689Z" fill="#F9F0E2"/>
<path d="M13.038 14.2821C12.9713 14.2821 12.9028 14.2777 12.8334 14.2689C12.9282 14.1584 13.0371 14.0513 13.1591 13.9521C13.1837 14.053 13.189 14.1619 13.1758 14.2751C13.131 14.2795 13.0854 14.2821 13.038 14.2821Z" fill="#FBF4E9"/>
<path d="M26.8967 10.2037C26.9974 9.80799 27.295 9.38158 27.7398 9.05149C28.1382 8.75643 28.576 8.59622 28.9551 8.5787C28.8702 8.99284 29.209 9.51554 29.7869 9.843C29.7947 9.85438 29.8026 9.86665 29.8114 9.87803C29.7938 9.91918 29.7737 9.9612 29.7527 10.0024C29.6345 9.90692 29.4997 9.81937 29.3517 9.74495C29.0496 9.59435 28.7388 9.52168 28.4639 9.52168C28.0892 9.52168 27.781 9.65739 27.6514 9.9183C27.6225 9.97609 27.6041 10.0365 27.5945 10.1004C27.5612 10.0978 27.527 10.096 27.492 10.096C27.3055 10.096 27.1033 10.1319 26.8967 10.2037Z" fill="#F6EBD9"/>
<path d="M28.3544 11.1756C28.4271 10.8919 28.3973 10.624 28.2458 10.42C28.1022 10.2265 27.8702 10.1206 27.5944 10.1004C27.6041 10.0365 27.6224 9.97611 27.6513 9.91832C27.7809 9.65741 28.0891 9.5217 28.4638 9.5217C28.7388 9.5217 29.0496 9.59437 29.3516 9.74497C29.4996 9.81939 29.6344 9.90694 29.7526 10.0024C29.6029 10.2887 29.3604 10.5732 29.0435 10.8087C28.8211 10.9742 28.5855 11.0968 28.3544 11.1756Z" fill="#F9F0E2"/>
<path d="M29.7868 9.84302C29.2089 9.51556 28.8701 8.99287 28.955 8.57873C28.9787 8.57786 29.0014 8.57698 29.0242 8.57698C29.3446 8.57698 29.6178 8.68379 29.7789 8.9018C29.8122 8.94733 29.8402 8.99548 29.8621 9.04714C29.7422 9.17759 29.673 9.32995 29.673 9.49192C29.673 9.61713 29.7133 9.73533 29.7868 9.84302Z" fill="#F9F0E2"/>
<path d="M26.7251 3.31921C26.712 3.31221 26.6988 3.30521 26.6848 3.2982C26.3828 3.14848 26.0728 3.07581 25.7988 3.07581C25.6429 3.07581 25.4985 3.09945 25.3741 3.14498C25.3645 3.13447 25.3557 3.1231 25.347 3.11172C25.2927 3.03817 25.2533 2.95587 25.2297 2.86743C25.2857 2.83241 25.3409 2.79476 25.396 2.75361C26.0439 2.27205 26.3801 1.58562 26.2479 1.09093C26.6244 0.852776 27.0228 0.731064 27.366 0.731064C27.6865 0.731064 27.9588 0.837023 28.1216 1.05504C28.3064 1.30632 28.3081 1.65391 28.1619 2.01114C28.1225 1.98837 28.0822 1.96648 28.0402 1.94547C27.739 1.79488 27.4291 1.7222 27.1541 1.7222C26.7794 1.7222 26.4712 1.85791 26.3407 2.11971C26.1674 2.46818 26.3618 2.93572 26.7864 3.29645C26.7663 3.30433 26.7452 3.31221 26.7251 3.31921Z" fill="#F6EBD9"/>
<path d="M25.2297 2.86749C25.0957 2.37368 25.4328 1.68637 26.0825 1.20481C26.1367 1.16454 26.1919 1.12689 26.2479 1.09099C26.3801 1.58568 26.0439 2.27211 25.396 2.75367C25.3409 2.79482 25.2857 2.83247 25.2297 2.86749Z" fill="#F9F0E2"/>
<path d="M26.7864 3.29651C26.3618 2.93578 26.1674 2.46824 26.3408 2.11977C26.4712 1.85797 26.7794 1.72226 27.1541 1.72226C27.4291 1.72226 27.739 1.79493 28.0402 1.94553C28.0822 1.96654 28.1225 1.98843 28.1619 2.0112C28.0235 2.34566 27.7556 2.68712 27.3853 2.96292C27.1909 3.10651 26.9878 3.21771 26.7864 3.29651Z" fill="#F9F0E2"/>
<path d="M26.1015 3.43567C25.7977 3.43567 25.5377 3.34022 25.374 3.14497C25.4983 3.09943 25.6428 3.07579 25.7986 3.07579C26.0727 3.07579 26.3826 3.14847 26.6847 3.29819C26.6987 3.3052 26.7118 3.3122 26.7249 3.31921C26.5087 3.39714 26.2959 3.43567 26.1015 3.43567Z" fill="#F9F0E2"/>
<path d="M29.5688 13.27C29.6345 13.1667 29.6704 13.0546 29.6704 12.9364C29.6704 12.4444 29.0426 12.0469 28.266 12.0469C28.2257 12.0469 28.1863 12.0477 28.1469 12.0495C28.2476 11.8323 28.4026 11.6143 28.604 11.4156C28.8841 11.5434 29.1678 11.6056 29.4217 11.6056C29.7956 11.6056 30.1038 11.4699 30.2342 11.2081C30.3104 11.054 30.3157 10.8771 30.2605 10.6959C30.5451 10.7134 30.785 10.8193 30.9329 11.0181C31.2919 11.504 30.9627 12.3559 30.1966 12.925C29.9926 13.0756 29.779 13.1912 29.5688 13.27Z" fill="#F6EBD9"/>
<path d="M29.4217 11.6055C29.1678 11.6055 28.8841 11.5434 28.6039 11.4155C28.6924 11.3288 28.7887 11.2457 28.8937 11.1678C29.3166 10.8552 29.7833 10.6941 30.1773 10.6941C30.2053 10.6941 30.2333 10.6941 30.2605 10.6958C30.3157 10.8771 30.3104 11.0539 30.2342 11.208C30.1038 11.4698 29.7956 11.6055 29.4217 11.6055Z" fill="#F9F0E2"/>
<path d="M31.6781 5.30933C31.6755 5.30933 31.6738 5.30933 31.672 5.30933C31.9364 5.26205 32.1466 5.13511 32.2473 4.9311C32.4565 4.51083 32.1291 3.9172 31.5109 3.54859C31.5258 3.54947 31.5407 3.54947 31.5556 3.54947C31.9303 3.54947 32.2394 3.41288 32.369 3.15109C32.4381 3.01188 32.4495 2.85428 32.4101 2.69142C32.5949 2.63364 32.7761 2.60387 32.9433 2.60387C33.2638 2.60387 33.5361 2.71068 33.6972 2.92782C34.0579 3.41375 33.7278 4.26742 32.9626 4.83478C32.5388 5.14823 32.0721 5.30933 31.6781 5.30933Z" fill="#F6EBD9"/>
<path d="M31.5554 3.54956C31.5405 3.54956 31.5256 3.54956 31.5108 3.54868C31.4635 3.52067 31.4144 3.49351 31.3637 3.46812C31.3339 3.45411 31.3041 3.43923 31.2744 3.42609C31.3864 3.30352 31.5151 3.18619 31.6596 3.0785C31.903 2.89901 32.1604 2.76856 32.41 2.69151C32.4494 2.85437 32.438 3.01197 32.3688 3.15118C32.2392 3.41297 31.9301 3.54956 31.5554 3.54956Z" fill="#F9F0E2"/>
<path d="M31.6719 5.30939C31.354 5.30764 31.0844 5.2017 30.9233 4.98631C30.6475 4.61245 30.7779 4.02232 31.2 3.51187C31.3068 3.53376 31.411 3.54603 31.5108 3.54866C32.1289 3.91727 32.4564 4.5109 32.2471 4.93116C32.1464 5.13517 31.9363 5.26211 31.6719 5.30939Z" fill="#F9F0E2"/>
<path d="M31.5115 3.54865C31.4115 3.54601 31.307 3.53371 31.1999 3.51176C31.2245 3.48279 31.2491 3.45383 31.2745 3.42574C31.3044 3.4389 31.3342 3.45382 31.3641 3.46787C31.415 3.49333 31.4641 3.52055 31.5115 3.54865Z" fill="#FBF4E9"/>
<path d="M27.3143 12.2815C27.1541 12.1003 26.9395 11.9348 26.6847 11.8069C26.3827 11.6563 26.0719 11.5828 25.7969 11.5828C25.6472 11.5828 25.5071 11.6047 25.3854 11.6485C25.5028 11.2746 25.7908 10.8806 26.2084 10.5707C26.4317 10.4052 26.6664 10.2826 26.8966 10.2038C26.8248 10.4875 26.8546 10.7554 27.0061 10.9594C27.1663 11.1765 27.4386 11.2833 27.759 11.2833C27.9123 11.2833 28.0777 11.2588 28.2467 11.2098C28.273 11.2291 28.301 11.2475 28.329 11.2658C28.2371 11.5478 28.048 11.842 27.7792 12.1011C27.6058 12.1414 27.4482 12.2036 27.3143 12.2815Z" fill="#F6EBD9"/>
<path d="M26.2277 12.8015C25.9072 12.8015 25.6349 12.6956 25.473 12.4776C25.3092 12.2561 25.2882 11.9592 25.3854 11.6484C25.5071 11.6047 25.6472 11.5828 25.7969 11.5828C26.0718 11.5828 26.3827 11.6563 26.6847 11.8069C26.9395 11.9347 27.154 12.1002 27.3143 12.2814C27.1409 12.3821 27.0069 12.51 26.9308 12.6544C26.6874 12.7525 26.4466 12.8015 26.2277 12.8015Z" fill="#F9F0E2"/>
<path d="M28.3293 11.2657C28.3012 11.2473 28.2731 11.2289 28.2468 11.2096C28.2827 11.1999 28.3187 11.1885 28.3547 11.1753C28.3477 11.2052 28.3389 11.235 28.3293 11.2657Z" fill="#F9F0E2"/>
<path d="M27.7589 11.2833C27.4385 11.2833 27.1662 11.1765 27.006 10.9594C26.8545 10.7554 26.8247 10.4875 26.8965 10.2038C27.1032 10.132 27.3054 10.0961 27.4919 10.0961C27.5269 10.0961 27.5611 10.0978 27.5943 10.1005C27.5418 10.4612 27.7983 10.8955 28.2466 11.2098C28.0776 11.2588 27.9122 11.2833 27.7589 11.2833Z" fill="#F9F0E2"/>
<path d="M28.2466 11.2097C27.7984 10.8954 27.5418 10.4611 27.5944 10.1004C27.8702 10.1205 28.1022 10.2265 28.2458 10.42C28.3972 10.624 28.427 10.8919 28.3543 11.1756C28.3184 11.1887 28.2825 11.2001 28.2466 11.2097Z" fill="#FBF4E9"/>
<path d="M22.1519 14.592C22.0424 14.592 21.9391 14.5798 21.8428 14.5544C21.8848 14.4703 21.9067 14.381 21.9067 14.2882C21.9067 14.191 21.8822 14.0982 21.8367 14.0107C21.9251 14.0728 22.0214 14.1306 22.123 14.1814C22.4041 14.3215 22.6921 14.395 22.9513 14.4038C22.6755 14.529 22.3997 14.592 22.1519 14.592ZM23.8855 13.6963C23.8662 13.291 23.502 12.8261 22.9408 12.545C22.6842 12.4163 22.4216 12.3445 22.1799 12.3261C22.5897 12.0363 23.0371 11.8866 23.4162 11.8866C23.7375 11.8866 24.0098 11.9934 24.1718 12.2114C24.4511 12.587 24.3154 13.1833 23.8855 13.6963ZM21.4182 13.6141C21.3744 13.5904 21.3289 13.5676 21.2807 13.5475C21.2886 13.5142 21.2973 13.4801 21.3078 13.446C21.3394 13.5029 21.3761 13.5589 21.4182 13.6141Z" fill="#F6EBD9"/>
<path d="M22.9515 14.4038C22.6923 14.3951 22.4042 14.3215 22.1232 14.1814C22.0216 14.1306 21.9253 14.0728 21.8369 14.0107C21.7563 13.8548 21.6101 13.7182 21.4184 13.6141C21.3763 13.5589 21.3396 13.5029 21.308 13.446C21.4236 13.0703 21.7125 12.6728 22.1337 12.3602C22.1486 12.3489 22.1643 12.3375 22.1801 12.3261C22.4217 12.3445 22.6844 12.4163 22.9409 12.545C23.5022 12.8261 23.8664 13.291 23.8857 13.6964C23.8506 13.7384 23.8139 13.7795 23.7745 13.8207C23.4295 13.8356 23.1484 13.9704 23.0267 14.2156C22.9979 14.2725 22.9795 14.3329 22.9698 14.3959C22.9637 14.3985 22.9576 14.4012 22.9515 14.4038Z" fill="#F9F0E2"/>
<path d="M22.9697 14.3959C22.9793 14.3328 22.9977 14.2724 23.0266 14.2155C23.1483 13.9704 23.4293 13.8355 23.7743 13.8206C23.6745 13.9248 23.5615 14.0255 23.4363 14.1175C23.2849 14.2304 23.1273 14.3232 22.9697 14.3959Z" fill="#FBF4E9"/>
<path d="M30.39 7.34595C30.3331 7.34595 30.2762 7.34331 30.2201 7.33981C30.0669 7.05526 29.7762 6.78035 29.3971 6.59035C29.2596 6.52206 29.1204 6.46952 28.9838 6.43275C28.9865 6.38197 28.9952 6.33206 29.0101 6.28391C29.6825 6.27603 30.2394 5.96959 30.3637 5.56508C30.3725 5.56508 30.3812 5.56508 30.39 5.56508C30.6281 5.56508 30.8523 5.60272 31.0493 5.66926C31.0388 5.6859 31.0291 5.7034 31.0195 5.72179C30.8356 6.09127 31.065 6.59561 31.5457 6.96334C31.2918 7.19449 30.868 7.34595 30.39 7.34595Z" fill="#F6EBD9"/>
<path d="M30.2201 7.33978C29.5232 7.28637 28.9838 6.91165 28.9838 6.45549C28.9838 6.44761 28.9838 6.4406 28.9838 6.43272C29.1204 6.4695 29.2596 6.52203 29.3971 6.59033C29.7762 6.78032 30.0669 7.05523 30.2201 7.33978Z" fill="#F9F0E2"/>
<path d="M31.5457 6.96338C31.065 6.59565 30.8356 6.09131 31.0195 5.72183C31.0291 5.70345 31.0388 5.68595 31.0493 5.66931C31.4932 5.81816 31.7961 6.11409 31.7961 6.45555C31.7961 6.64467 31.7033 6.81891 31.5457 6.96338Z" fill="#F9F0E2"/>
<path d="M31.0802 10.3823C30.5216 10.3823 30.0382 10.1766 29.8115 9.87801C29.8141 9.87189 29.8167 9.86662 29.8185 9.86049C29.8412 9.87362 29.8649 9.88502 29.8885 9.89727C30.1897 10.047 30.4988 10.1205 30.7737 10.1205C31.1493 10.1205 31.4584 9.98396 31.5897 9.72304C31.6886 9.52341 31.6659 9.28436 31.5494 9.04883C31.6554 9.13026 31.7745 9.20468 31.9032 9.26947C32.0975 9.36666 32.2945 9.43058 32.4845 9.46473C32.4845 9.47348 32.4845 9.48312 32.4845 9.49187C32.4845 9.98482 31.855 10.3823 31.0802 10.3823Z" fill="#F6EBD9"/>
<path d="M32.4845 9.46472C32.2945 9.43058 32.0975 9.36666 31.9031 9.26947C31.7744 9.20468 31.6553 9.13026 31.5494 9.04883C31.4732 8.89561 31.3568 8.74416 31.2079 8.60582C31.9093 8.6461 32.4626 9.01294 32.4845 9.46472Z" fill="#F9F0E2"/>
<path d="M30.7735 10.1205C30.4986 10.1205 30.1895 10.047 29.8883 9.89729C29.8647 9.88504 29.8411 9.87364 29.8183 9.86051C29.94 9.56719 29.961 9.27913 29.8621 9.04711C30.1046 8.78094 30.559 8.60234 31.08 8.60234C31.0957 8.60234 31.1124 8.60234 31.1281 8.60234C31.2297 8.76082 31.3724 8.91403 31.5493 9.04886C31.6657 9.28439 31.6885 9.52343 31.5895 9.72306C31.4582 9.98398 31.1492 10.1205 30.7735 10.1205Z" fill="#F9F0E2"/>
<path d="M31.5493 9.04883C31.3724 8.91399 31.2297 8.76078 31.1281 8.60231C31.1553 8.60319 31.1815 8.60406 31.2078 8.60582C31.3567 8.74415 31.4731 8.89561 31.5493 9.04883Z" fill="#FBF4E9"/>
<path d="M29.8113 9.87805C29.8026 9.86664 29.7947 9.85434 29.7868 9.84293C29.7973 9.84907 29.8078 9.85521 29.8184 9.86048C29.8166 9.86662 29.814 9.87191 29.8113 9.87805Z" fill="#F9F0E2"/>
<path d="M29.8184 9.86047C29.8079 9.85522 29.7974 9.8491 29.7869 9.84297C29.7133 9.73527 29.673 9.61707 29.673 9.49187C29.673 9.32989 29.7422 9.17753 29.8621 9.04707C29.9611 9.2791 29.9401 9.56716 29.8184 9.86047Z" fill="#FBF4E9"/>
<path d="M27.3676 15.4308C27.5156 15.3616 27.6609 15.289 27.8045 15.2128C27.6846 15.303 27.5357 15.3774 27.3676 15.4308Z" fill="#6B655B"/>
<path d="M26.7328 15.5262C26.3099 15.5262 25.9308 15.4089 25.6726 15.2216C25.6699 14.9878 25.5508 14.7312 25.3425 14.5018C25.4458 14.0737 26.0298 13.7471 26.7328 13.7471C27.5094 13.7471 28.139 14.1446 28.139 14.6367C28.139 14.8565 28.0138 15.0578 27.8045 15.2128C27.6609 15.289 27.5156 15.3617 27.3676 15.4308C27.1776 15.4921 26.9614 15.5262 26.7328 15.5262Z" fill="#F6EBD9"/>
<path d="M25.6727 15.2216C25.4573 15.0648 25.3268 14.8608 25.3268 14.6367C25.3268 14.5903 25.3321 14.5456 25.3426 14.5019C25.551 14.7313 25.6701 14.9878 25.6727 15.2216Z" fill="#F9F0E2"/>
<path d="M14.9382 13.4617C14.8314 13.424 14.7123 13.403 14.5854 13.3995C14.5854 13.3986 14.5854 13.3986 14.5854 13.3986C14.5854 12.9057 15.2149 12.5082 15.9915 12.5082C16.6254 12.5082 17.1621 12.7735 17.3372 13.1395C17.3346 13.1885 17.3364 13.2384 17.3434 13.2892C17.0868 13.0747 16.6797 12.9363 16.2218 12.9363C15.6501 12.9363 15.158 13.1517 14.9382 13.4617Z" fill="#F6EBD9"/>
<path d="M15.9915 14.2882C15.798 14.2882 15.6132 14.2637 15.4451 14.219C15.4504 14.0334 15.404 13.8627 15.2998 13.7226C15.2105 13.6018 15.0861 13.5151 14.9382 13.4617C15.1579 13.1518 15.65 12.9364 16.2217 12.9364C16.6796 12.9364 17.0868 13.0747 17.3433 13.2892C17.3521 13.3514 17.3687 13.4153 17.3924 13.4783C17.3284 13.9345 16.7243 14.2882 15.9915 14.2882Z" fill="#F9F0E2"/>
<path d="M14.8191 13.8916C14.6712 13.7506 14.5854 13.5817 14.5854 13.3996C14.7123 13.4031 14.8314 13.4241 14.9382 13.4617C14.8594 13.5729 14.8156 13.6964 14.8156 13.8268C14.8156 13.8478 14.8165 13.8697 14.8191 13.8916Z" fill="#F9F0E2"/>
<path d="M15.4451 14.2191C15.1895 14.1508 14.9714 14.0361 14.8191 13.8916C14.8165 13.8697 14.8156 13.8478 14.8156 13.8268C14.8156 13.6964 14.8594 13.5729 14.9382 13.4617C15.0862 13.5151 15.2105 13.6018 15.2998 13.7226C15.404 13.8627 15.4504 14.0334 15.4451 14.2191Z" fill="#FBF4E9"/>
<path d="M17.3944 13.3347C17.3786 13.3189 17.361 13.304 17.3434 13.2891C17.3364 13.2382 17.3346 13.1881 17.3373 13.139C17.3671 13.2022 17.3873 13.2671 17.3944 13.3347Z" fill="#F9F0E2"/>
<path d="M17.3926 13.4783C17.3689 13.4151 17.3522 13.351 17.3434 13.2887C17.361 13.3036 17.3785 13.3185 17.3943 13.3343C17.397 13.3554 17.3978 13.3764 17.3978 13.3984C17.3978 13.4247 17.3961 13.4519 17.3926 13.4783Z" fill="#FBF4E9"/>
<path d="M15.5766 16.0691C15.1152 16.0691 14.7055 15.929 14.4489 15.711C14.4874 15.6856 14.526 15.6584 14.5645 15.6304C14.9848 15.3179 15.2746 14.9195 15.3901 14.5438C15.623 14.6524 15.9102 14.7163 16.2219 14.7163C16.397 14.7163 16.5634 14.6962 16.7184 14.6594C16.7201 14.6612 16.7227 14.6629 16.7253 14.6647C16.6719 14.8967 16.7525 15.162 16.9346 15.4098C16.7744 15.7898 16.2263 16.0691 15.5766 16.0691Z" fill="#F6EBD9"/>
<path d="M16.2218 14.7164C15.9101 14.7164 15.623 14.6525 15.3901 14.5439C15.4163 14.4581 15.433 14.3741 15.4409 14.2927C15.4855 14.29 15.531 14.2883 15.5766 14.2883C16.0459 14.2883 16.4626 14.4345 16.7183 14.6595C16.5633 14.6963 16.397 14.7164 16.2218 14.7164Z" fill="#F9F0E2"/>
<path d="M14.4489 15.7109C14.2738 15.563 14.1696 15.3782 14.1696 15.1786C14.1696 14.7977 14.5479 14.4729 15.0793 14.3459C15.166 14.4212 15.2711 14.4887 15.3901 14.5438C15.2746 14.9194 14.9848 15.3178 14.5645 15.6304C14.526 15.6584 14.4874 15.6855 14.4489 15.7109Z" fill="#F9F0E2"/>
<path d="M15.3909 14.5438C15.2715 14.4885 15.1662 14.4209 15.0793 14.3454C15.1943 14.3182 15.3154 14.2998 15.4418 14.2919C15.4339 14.3735 15.4172 14.4578 15.3909 14.5438Z" fill="#FBF4E9"/>
<path d="M16.9344 15.4098C16.7523 15.162 16.6717 14.8967 16.7252 14.6647C16.8871 14.81 16.9826 14.9878 16.9826 15.1786C16.9826 15.2583 16.966 15.3362 16.9344 15.4098Z" fill="#F9F0E2"/>
<path d="M23.8444 16.4158C23.5826 16.4158 23.3365 16.3703 23.1264 16.2915C23.277 16.2915 23.4267 16.2924 23.5747 16.2932C23.5896 16.2932 23.6053 16.2932 23.6202 16.2932C23.995 16.2932 24.3645 16.2679 24.7278 16.2188C24.4862 16.3423 24.1788 16.4158 23.8444 16.4158Z" fill="#6B655B"/>
<path d="M23.6204 16.2932C23.6055 16.2932 23.5897 16.2932 23.5748 16.2932C23.4269 16.2923 23.2772 16.2915 23.1266 16.2915C22.7159 16.1365 22.4401 15.8519 22.4401 15.5262C22.4401 15.2276 22.6713 14.9641 23.0259 14.8021C23.1546 15.1296 23.4724 15.4605 23.9093 15.6794C24.2114 15.8292 24.5205 15.9018 24.7954 15.9018C24.9241 15.9018 25.0449 15.8861 25.1535 15.8546C25.0633 15.9981 24.9153 16.1234 24.728 16.2188C24.3646 16.2678 23.9951 16.2932 23.6204 16.2932Z" fill="#F6EBD9"/>
<path d="M24.7953 15.9019C24.5204 15.9019 24.2113 15.8292 23.9093 15.6795C23.4724 15.4606 23.1545 15.1296 23.0258 14.8022C23.257 14.698 23.5389 14.6367 23.8445 14.6367C24.6211 14.6367 25.2515 15.0333 25.2515 15.5262C25.2515 15.6427 25.2165 15.753 25.1534 15.8546C25.0449 15.8861 24.9241 15.9019 24.7953 15.9019Z" fill="#F9F0E2"/>
<path d="M28.2659 13.8268C27.8736 13.8268 27.519 13.7252 27.2634 13.5606C27.3982 13.4941 27.5041 13.396 27.5672 13.2691C27.695 13.0143 27.6241 12.6938 27.4096 12.3996C27.4437 12.3769 27.4779 12.3532 27.5112 12.3287C27.6075 12.2569 27.6976 12.1807 27.7791 12.1011C27.8955 12.0739 28.019 12.0564 28.1468 12.0494C27.9708 12.4303 27.9603 12.8076 28.1591 13.0747C28.3193 13.2927 28.5916 13.3986 28.9121 13.3986C29.1169 13.3986 29.3411 13.3557 29.5687 13.2699C29.3603 13.5965 28.856 13.8268 28.2659 13.8268Z" fill="#F6EBD9"/>
<path d="M27.2636 13.5607C27.014 13.4004 26.8591 13.1798 26.8591 12.9364C26.8591 12.8375 26.8845 12.7429 26.9309 12.6545C27.0911 12.5905 27.2531 12.5056 27.4098 12.3997C27.6243 12.6939 27.6952 13.0143 27.5674 13.2691C27.5043 13.3961 27.3984 13.4941 27.2636 13.5607Z" fill="#F9F0E2"/>
<path d="M28.912 13.3987C28.5916 13.3987 28.3193 13.2927 28.159 13.0747C27.9603 12.8077 27.9708 12.4303 28.1468 12.0494C28.1862 12.0477 28.2256 12.0468 28.2659 12.0468C29.0425 12.0468 29.6703 12.4443 29.6703 12.9364C29.6703 13.0546 29.6344 13.1667 29.5687 13.27C29.3411 13.3558 29.1169 13.3987 28.912 13.3987Z" fill="#F9F0E2"/>
<path d="M27.4098 12.3997C27.3809 12.3594 27.3485 12.32 27.3144 12.2815C27.4484 12.2036 27.6059 12.1414 27.7793 12.1011C27.6979 12.1808 27.6077 12.257 27.5114 12.3288C27.4781 12.3533 27.444 12.3769 27.4098 12.3997Z" fill="#F9F0E2"/>
<path d="M26.9308 12.6544C27.007 12.5099 27.141 12.3821 27.3144 12.2814C27.3485 12.3199 27.3809 12.3593 27.4098 12.3996C27.253 12.5056 27.0911 12.5905 26.9308 12.6544Z" fill="#FBF4E9"/>
<path d="M17.3978 3.14062C17.1632 3.14062 16.9416 3.10474 16.7473 3.03994C17.1001 3.02944 17.3882 2.89372 17.5134 2.64156C17.5729 2.52424 17.5887 2.39204 17.5685 2.25545C17.6071 2.17402 17.6281 2.0882 17.6281 1.9989C17.6281 1.91747 17.6106 1.8378 17.5782 1.76338C17.7909 1.69946 17.9757 1.60403 18.114 1.48495C18.2384 1.53136 18.3504 1.59002 18.4467 1.65831C18.3767 1.71435 18.3206 1.78265 18.2804 1.86232C18.1429 2.139 18.2375 2.49185 18.4958 2.80618C18.2375 3.01018 17.8417 3.14062 17.3978 3.14062Z" fill="#F6EBD9"/>
<path d="M17.5782 1.76337C17.5116 1.61103 17.3847 1.47532 17.2131 1.36763C17.2735 1.36325 17.3357 1.36064 17.3978 1.36064C17.6596 1.36064 17.9048 1.40529 18.114 1.48496C17.9757 1.60403 17.7909 1.69945 17.5782 1.76337Z" fill="#F9F0E2"/>
<path d="M17.5685 2.25549C17.5466 2.10928 17.4818 1.95693 17.382 1.80985C17.4494 1.79759 17.5151 1.78183 17.5782 1.76344C17.6105 1.83786 17.6281 1.91753 17.6281 1.99895C17.6281 2.08825 17.6071 2.17407 17.5685 2.25549Z" fill="#F9F0E2"/>
<path d="M17.3818 1.80981C17.282 1.66447 17.148 1.52352 16.9843 1.39919C17.0579 1.38518 17.1349 1.37466 17.2128 1.36766C17.3844 1.47535 17.5114 1.61106 17.5779 1.76341C17.5149 1.78179 17.4492 1.79756 17.3818 1.80981Z" fill="#FBF4E9"/>
<path d="M16.7472 3.03992C16.6211 2.99789 16.5055 2.94448 16.4057 2.88144C16.959 2.83591 17.4117 2.58638 17.5684 2.25542C17.5886 2.392 17.5728 2.52421 17.5133 2.64153C17.3881 2.89369 17.1 3.02941 16.7472 3.03992Z" fill="#F9F0E2"/>
<path d="M16.4058 2.88147C16.1501 2.72037 15.9916 2.4971 15.9916 2.25019C15.9916 2.05319 16.0932 1.8702 16.2657 1.72223C16.4758 1.80103 16.7201 1.84655 16.9828 1.84655C17.1211 1.84655 17.2551 1.83343 17.382 1.80979C17.4818 1.95688 17.5466 2.10923 17.5685 2.25545C17.4118 2.58641 16.9591 2.83594 16.4058 2.88147Z" fill="#FBF4E9"/>
<path d="M16.9827 1.84656C16.72 1.84656 16.4757 1.80103 16.2656 1.72223C16.4424 1.57076 16.6928 1.45607 16.9844 1.39915C17.1481 1.52349 17.2821 1.66445 17.3819 1.80979C17.255 1.83343 17.121 1.84656 16.9827 1.84656Z" fill="#FCF7EE"/>
<path d="M18.4956 2.80615C18.2373 2.49183 18.1427 2.13898 18.2802 1.86231C18.3205 1.78263 18.3765 1.71433 18.4466 1.65829C18.6681 1.81589 18.8029 2.0234 18.8029 2.25017C18.8029 2.46118 18.6882 2.65381 18.4956 2.80615Z" fill="#F9F0E2"/>
<path d="M20.5014 15.1786C19.8956 15.1786 19.379 14.937 19.1811 14.5964C19.5497 14.5929 19.8527 14.4572 19.9822 14.198C20.0882 13.9861 20.0558 13.7279 19.9183 13.4783C20.096 13.4267 20.2939 13.3987 20.5014 13.3987C20.7895 13.3987 21.0574 13.4529 21.2807 13.5475C21.2194 13.8189 21.2535 14.0728 21.398 14.2681C21.5048 14.4117 21.6589 14.5062 21.8428 14.5544C21.6642 14.9169 21.131 15.1786 20.5014 15.1786Z" fill="#F6EBD9"/>
<path d="M19.1812 14.5964C19.1252 14.5001 19.0954 14.3968 19.0954 14.2882C19.0954 13.9284 19.4325 13.6184 19.9184 13.4783C20.0559 13.7279 20.0883 13.9862 19.9824 14.1981C19.8528 14.4572 19.5498 14.5929 19.1812 14.5964Z" fill="#F9F0E2"/>
<path d="M21.8428 14.5544C21.6589 14.5062 21.5048 14.4117 21.398 14.2681C21.2536 14.0728 21.2194 13.8189 21.2807 13.5475C21.3288 13.5676 21.3744 13.5904 21.4182 13.614C21.5267 13.7559 21.6686 13.8916 21.8367 14.0107C21.8822 14.0982 21.9067 14.191 21.9067 14.2882C21.9067 14.381 21.8848 14.4703 21.8428 14.5544Z" fill="#F9F0E2"/>
<path d="M21.8367 14.0106C21.6686 13.8915 21.5267 13.7558 21.4182 13.614C21.6099 13.7182 21.7561 13.8548 21.8367 14.0106Z" fill="#FBF4E9"/>
<path d="M27.9998 4.67981C27.8658 4.66405 27.7389 4.63516 27.6216 4.59664C27.6855 4.23065 27.4245 3.78586 26.9658 3.4654C26.971 3.45752 26.9754 3.45054 26.9815 3.44266C27.0568 3.49344 27.1374 3.54071 27.2223 3.58361C27.5244 3.73333 27.8334 3.80601 28.1084 3.80601C28.4831 3.80601 28.7922 3.66941 28.9235 3.40762C28.9795 3.29468 28.997 3.16947 28.9804 3.03902C29.3324 3.17123 29.5854 3.39799 29.6528 3.66416C29.5986 3.78498 29.5881 3.91894 29.6135 4.05728C29.5294 4.23852 29.3578 4.39526 29.1293 4.5082C29.0811 4.50558 29.0329 4.50382 28.9839 4.50382C28.6731 4.50382 28.3859 4.56773 28.1539 4.67543C28.1486 4.67543 28.1443 4.67543 28.139 4.67543C28.0926 4.67543 28.0453 4.67718 27.9998 4.67981Z" fill="#F6EBD9"/>
<path d="M28.1211 4.69128C28.0807 4.68865 28.0394 4.68515 27.9999 4.67988C28.0456 4.67725 28.093 4.67549 28.1395 4.67549C28.1448 4.67549 28.1492 4.67549 28.1544 4.67549C28.143 4.68076 28.1325 4.68602 28.1211 4.69128Z" fill="#F9F0E2"/>
<path d="M28.1085 3.80603C27.8335 3.80603 27.5245 3.73336 27.2224 3.58364C27.1375 3.54074 27.0569 3.49347 26.9816 3.44269C27.2005 3.13187 27.6943 2.9156 28.2661 2.9156C28.527 2.9156 28.7713 2.96025 28.9805 3.03905C28.9972 3.16951 28.9797 3.29471 28.9236 3.40765C28.7923 3.66944 28.4832 3.80603 28.1085 3.80603Z" fill="#F9F0E2"/>
<path d="M27.6217 4.59668C27.169 4.44959 26.8591 4.15015 26.8591 3.80606C26.8591 3.68523 26.8967 3.57052 26.9659 3.46545C27.4246 3.78591 27.6856 4.2307 27.6217 4.59668Z" fill="#F9F0E2"/>
<path d="M29.6135 4.05737C29.588 3.91868 29.5985 3.78439 29.6529 3.66325C29.6643 3.70978 29.6705 3.75719 29.6705 3.80546C29.6705 3.89236 29.6503 3.9775 29.6135 4.05737Z" fill="#F9F0E2"/>
<path d="M28.9839 6.28394C28.9787 6.28394 28.9734 6.28394 28.9691 6.28394C28.9857 6.27693 29.0015 6.26905 29.0172 6.26029C29.0146 6.26817 29.012 6.27606 29.0102 6.28394C29.0015 6.28394 28.9927 6.28394 28.9839 6.28394ZM29.5119 5.75947C29.5338 5.69731 29.5461 5.63252 29.5461 5.5651C29.5461 5.13169 29.054 4.77007 28.4052 4.69127C28.6766 4.67463 28.9253 4.60898 29.1293 4.50829C29.8376 4.55469 30.3901 4.93292 30.3901 5.39435C30.3901 5.45301 30.3813 5.50994 30.3638 5.5651C30.0416 5.56948 29.7465 5.64127 29.5119 5.75947Z" fill="#F6EBD9"/>
<path d="M28.9689 6.28394C28.2002 6.27868 27.5786 5.88204 27.5786 5.39436C27.5786 5.10805 27.7913 4.85414 28.1205 4.69128C28.1687 4.69479 28.2168 4.69567 28.2659 4.69567C28.3123 4.69567 28.3596 4.69479 28.4051 4.69128C29.0539 4.77008 29.5459 5.13171 29.5459 5.56511C29.5459 5.63253 29.5337 5.69731 29.5118 5.75948C29.2666 5.88381 29.088 6.05892 29.0171 6.26029C29.0013 6.26905 28.9856 6.27693 28.9689 6.28394Z" fill="#F9F0E2"/>
<path d="M29.0102 6.28394C29.0119 6.27606 29.0146 6.26817 29.0172 6.26029C29.2632 6.13596 29.441 5.96085 29.5119 5.75947C29.7465 5.64127 30.0416 5.56947 30.3638 5.56509C30.2395 5.96961 29.6826 6.27606 29.0102 6.28394Z" fill="#F9F0E2"/>
<path d="M29.0173 6.26025C29.0882 6.05887 29.2668 5.88376 29.5119 5.75943C29.441 5.96081 29.2633 6.13592 29.0173 6.26025Z" fill="#FBF4E9"/>
<path d="M28.4053 4.69128C28.3239 4.68165 28.2398 4.67641 28.154 4.67553C28.386 4.56783 28.6732 4.50392 28.984 4.50392C29.033 4.50392 29.0812 4.50568 29.1294 4.5083C28.9254 4.60899 28.6767 4.67465 28.4053 4.69128Z" fill="#F9F0E2"/>
<path d="M28.2663 4.69568C28.2171 4.69568 28.1688 4.6948 28.1205 4.69129C28.132 4.68602 28.1425 4.68076 28.1539 4.67549C28.2399 4.67637 28.3242 4.68163 28.4058 4.69129C28.3602 4.6948 28.3128 4.69568 28.2663 4.69568Z" fill="#FBF4E9"/>
</svg>
